<?xml version="1.0" encoding="UTF-8"?>
<svg xmlns="http://www.w3.org/2000/svg" xmlns:xlink="http://www.w3.org/1999/xlink" width="1025px" height="955px" viewBox="0 0 1024 955" version="1.1">
  <g id="surface1">
    <path style=" stroke:none;fill-rule:nonzero;fill:rgb(0%,0%,0%);fill-opacity:1;" d="M 98.203125 0.632812 C 88.0625 2.308594 79.589844 6.691406 72.269531 14.070312 C 67.71875 18.683594 66.679688 20.125 63.796875 25.949219 C 59.1875 35.234375 56.480469 47.230469 56.480469 58.246094 C 56.480469 61.015625 56.421875 61.128906 54.867188 61.128906 C 51.925781 61.128906 38.960938 64.648438 34.003906 66.722656 C 17.117188 73.988281 7.320312 84.253906 3.398438 98.960938 C 1.84375 104.667969 1.671875 116.894531 3.054688 123.125 C 9.394531 151.726562 33.484375 170.007812 70.253906 174.21875 C 78.726562 175.140625 100.453125 174.5625 108.230469 173.179688 L 114.109375 172.085938 L 147.710938 202.996094 C 166.210938 219.949219 198.65625 249.765625 219.863281 269.257812 C 241.132812 288.75 259.34375 305.53125 260.4375 306.511719 C 262.339844 308.414062 262.339844 308.414062 261.707031 311.238281 L 261.015625 314.066406 L 250.238281 315.679688 C 202.863281 322.660156 166.382812 332.347656 149.035156 342.613281 C 143.847656 345.726562 138.085938 351.203125 136.125 354.953125 C 133.992188 358.988281 133.9375 365.738281 135.953125 369.945312 C 141.199219 380.5 158.949219 389.554688 191.050781 397.917969 C 202.519531 400.914062 228.046875 405.992188 243.78125 408.414062 L 256.402344 410.316406 L 256.75 413.488281 C 257.84375 424.328125 259.054688 433.210938 260.265625 440.015625 C 269.371094 489.609375 293.171875 535.515625 328.730469 571.902344 C 332.765625 576.054688 332.765625 576.113281 331.671875 577.210938 C 330.691406 578.074219 273.75 629.804688 135.550781 755.117188 C 115.722656 773.113281 109.097656 778.761719 108.175781 778.648438 C 107.484375 778.589844 104.429688 778.070312 101.433594 777.609375 C 93.652344 776.339844 75.324219 775.9375 67.3125 776.746094 C 32.621094 780.492188 9.222656 797.738281 1.902344 824.957031 C 0.519531 830.144531 0.402344 831.761719 0.347656 841.105469 C 0.289062 850.273438 0.460938 852.003906 1.613281 855.980469 C 7.664062 876.859375 26.511719 890.179688 53.886719 892.832031 C 55.789062 893.003906 55.730469 892.832031 57.054688 902.984375 C 60.800781 931.988281 77.6875 950.445312 101.949219 952 C 120.394531 953.210938 135.320312 947.734375 147.824219 935.160156 C 159.984375 922.992188 168.054688 904.65625 171.453125 881.644531 C 172.433594 875.242188 172.894531 858.519531 172.375 849.8125 L 172.144531 845.832031 L 261.128906 764.980469 L 350.113281 684.1875 L 350.457031 707.023438 C 350.746094 726.917969 350.917969 730.667969 352.015625 736.433594 C 355.875 757.195312 363.195312 774.035156 375.46875 790.414062 C 395.351562 816.824219 425.4375 834.472656 458.058594 838.796875 C 467.679688 840.066406 547.847656 840.066406 557.585938 838.796875 C 607.957031 832.164062 650.144531 793.871094 661.84375 744.21875 C 664.667969 731.992188 665.128906 725.996094 665.128906 701.3125 L 665.070312 678.535156 L 666.335938 679.746094 C 667.664062 680.898438 802.578125 804.773438 833.179688 832.914062 L 849.492188 847.910156 L 849.03125 851.136719 C 848.394531 856.328125 848.625 877.492188 849.433594 883.492188 C 852.71875 907.882812 861.132812 926.570312 874.386719 939.199219 C 881.707031 946.117188 890.179688 950.847656 899.917969 953.328125 C 906.890625 955.117188 920.78125 955.289062 927.007812 953.617188 C 937.839844 950.734375 946.945312 944.332031 953.171875 935.21875 C 958.472656 927.433594 962.851562 914.515625 964.234375 902.40625 L 964.925781 896.292969 L 969.191406 895.890625 C 971.554688 895.660156 976.164062 894.910156 979.449219 894.160156 C 1008.671875 887.527344 1024.171875 866.882812 1021.234375 838.335938 C 1018.640625 812.5 1002.617188 793.46875 975.992188 784.53125 C 960.027344 779.226562 938.589844 777.667969 919.339844 780.550781 L 912.769531 781.53125 L 910.984375 779.859375 C 909.945312 778.878906 859.632812 732.628906 799.0625 676.976562 C 738.550781 621.382812 688.988281 575.710938 688.988281 575.480469 C 688.988281 575.308594 692.273438 571.5 696.304688 567.117188 C 705.410156 557.140625 711.003906 550.277344 717.804688 540.648438 C 732.152344 520.40625 744.140625 496.589844 751.921875 472.886719 C 757.742188 455.007812 762.179688 433.382812 763.503906 416.140625 L 763.90625 410.429688 L 776.300781 408.46875 C 814.21875 402.644531 847.472656 394.226562 864.246094 386.152344 C 875.367188 380.789062 881.535156 375.828125 884.53125 369.714844 C 886.605469 365.390625 886.722656 359.683594 884.703125 355.644531 C 878.191406 342.324219 853.757812 331.710938 808.285156 322.371094 C 796.875 320.0625 774.398438 316.140625 764.65625 314.816406 C 760.625 314.238281 759.585938 313.949219 759.644531 313.199219 C 759.644531 312.507812 894.960938 189.039062 909.023438 176.871094 L 911.503906 174.738281 L 918.1875 175.832031 C 953.746094 181.945312 988.554688 174.21875 1006.882812 156.109375 C 1018.410156 144.808594 1024.117188 130.910156 1024.117188 114.414062 C 1024.117188 89.214844 1007 71.742188 975.992188 65.109375 C 973.167969 64.53125 970.691406 64.011719 970.519531 64.011719 C 970.34375 64.011719 970.171875 61.359375 970.058594 58.074219 C 969.191406 29.238281 956.109375 10.378906 932.652344 4.265625 C 924.929688 2.25 912.425781 2.074219 904.355469 3.921875 C 879.515625 9.574219 861.765625 29.355469 854.503906 59.398438 C 851.679688 70.933594 851.046875 77.105469 850.988281 91.925781 L 850.988281 105.707031 L 823.269531 130.851562 C 737.109375 209.164062 716.1875 228.082031 715.554688 228.195312 C 715.210938 228.253906 713.882812 226.984375 712.617188 225.3125 C 708.351562 219.777344 698.667969 209.109375 691.8125 202.417969 C 642.707031 154.609375 578.851562 128.601562 510.675781 128.601562 C 448.203125 128.601562 390.339844 149.652344 342.621094 189.671875 C 335.011719 196.015625 320.027344 210.894531 313.402344 218.738281 L 307.582031 225.484375 L 304.351562 222.429688 C 302.566406 220.757812 272.769531 193.363281 238.132812 161.53125 L 175.199219 103.6875 L 175.546875 93.480469 C 176.699219 61.417969 168.167969 34.082031 151.859375 17.53125 C 140.046875 5.59375 125.984375 -0.117188 108.519531 0.0585938 C 104.484375 0.117188 99.816406 0.347656 98.203125 0.632812 Z M 121.890625 13.839844 C 130.363281 16.089844 137.046875 20.125 143.5625 26.929688 C 148.230469 31.832031 150.128906 34.601562 153.761719 41.867188 C 162.347656 58.9375 165.289062 81.429688 162.175781 105.59375 L 161.828125 108.246094 L 230.757812 171.625 C 268.679688 206.457031 299.628906 235.230469 299.570312 235.578125 C 299.453125 235.867188 296.628906 240.308594 293.289062 245.382812 C 283.605469 259.914062 276.171875 273.8125 269.714844 289.324219 L 267.066406 295.785156 L 197.445312 231.828125 C 159.179688 196.652344 125.578125 165.742188 122.753906 163.203125 L 117.683594 158.589844 L 110.539062 159.972656 C 70.828125 167.988281 33.484375 157.320312 20.171875 134.082031 C 19.25 132.464844 17.691406 128.71875 16.65625 125.71875 C 15.097656 121.105469 14.753906 119.144531 14.523438 113.320312 C 14.234375 105.246094 15.042969 101.152344 18.269531 95.039062 C 24.667969 82.8125 42.417969 74.164062 64.546875 72.375 L 69.445312 71.972656 L 69.445312 59.804688 C 69.445312 49.078125 69.617188 46.941406 70.773438 42.386719 C 75.035156 25.316406 85.410156 15.167969 101.144531 12.6875 C 106.386719 11.878906 116.589844 12.457031 121.890625 13.839844 Z M 932.25 16.953125 C 949.769531 22.605469 958.875 39.964844 957.664062 65.398438 C 957.433594 69.550781 957.203125 73.46875 957.148438 74.105469 C 956.972656 75.144531 957.433594 75.316406 961.585938 75.605469 C 980.085938 77.046875 995.875 83.503906 1004.175781 92.960938 C 1014.085938 104.207031 1014.492188 122.71875 1005.269531 138.519531 C 998.699219 149.707031 984.925781 158.589844 967.695312 162.683594 C 950.808594 166.722656 928.503906 166.375 911.15625 161.761719 L 907.988281 160.953125 L 905.96875 162.859375 C 904.875 163.894531 885.394531 181.601562 862.746094 202.128906 C 840.097656 222.71875 806.726562 252.996094 788.574219 269.429688 C 770.421875 285.867188 755.4375 299.417969 755.261719 299.476562 C 755.089844 299.53125 753.648438 296.363281 752.09375 292.382812 C 746.042969 277.332031 736.53125 259.222656 727.714844 246.015625 C 724.546875 241.230469 723.277344 238.867188 723.625 238.347656 C 723.910156 237.941406 747.367188 216.546875 775.722656 190.828125 C 870.066406 105.1875 864.1875 110.609375 864.128906 108.996094 C 864.070312 108.1875 863.839844 103.804688 863.496094 99.191406 C 861.132812 64.417969 872.890625 33.332031 892.714844 21.683594 C 901.300781 16.609375 908.277344 14.9375 919.515625 15.226562 C 926.3125 15.398438 928.332031 15.628906 932.25 16.953125 Z M 524.449219 141.289062 C 552.574219 143.078125 575.855469 148.265625 601.675781 158.417969 C 643.6875 174.96875 681.148438 203.628906 708.640625 240.191406 C 713.308594 246.363281 717.109375 252.070312 716.824219 252.359375 C 716.648438 252.476562 623.515625 252.53125 509.867188 252.476562 L 303.199219 252.300781 L 308.273438 245.152344 C 323.199219 224.273438 342.792969 204.320312 363.078125 189.328125 C 409.589844 154.957031 467.566406 137.714844 524.449219 141.289062 Z M 766.730469 329.347656 C 802.234375 334.769531 828.167969 340.421875 846.78125 346.9375 C 853.871094 349.417969 866.148438 355.300781 867.644531 356.972656 L 868.683594 358.125 L 151.339844 358.125 L 153.359375 356.625 C 156.414062 354.320312 167.304688 349.1875 174.046875 346.878906 C 192.71875 340.421875 219.230469 334.597656 253.578125 329.289062 L 264.816406 327.558594 L 512 327.90625 C 754.976562 328.195312 759.355469 328.195312 766.730469 329.347656 Z M 256.808594 373.8125 C 256.632812 375.828125 256.289062 381.652344 256.117188 386.785156 L 255.710938 396.128906 L 254.214844 395.839844 C 253.40625 395.726562 247.816406 394.800781 241.765625 393.820312 C 206.550781 388.171875 176.527344 380.386719 161.542969 373.0625 L 155.894531 370.351562 L 206.550781 370.292969 L 257.152344 370.234375 Z M 751.34375 371.792969 C 751.632812 372.714844 751.804688 382.460938 751.804688 393.589844 C 751.804688 409.738281 751.574219 415.390625 750.769531 421.847656 C 745.523438 462.042969 733.074219 495.78125 711.464844 528.25 C 657.058594 609.910156 558.738281 650.566406 462.4375 631.128906 C 377.316406 614.003906 308.097656 552.699219 280.4375 469.945312 C 274.960938 453.507812 271.042969 434.535156 269.082031 414.929688 C 268.277344 406.855469 268.101562 383.960938 268.792969 375.828125 L 269.253906 370.234375 L 750.941406 370.234375 Z M 862.863281 371.160156 C 856.347656 375.714844 832.664062 383.210938 808.285156 388.402344 C 797.046875 390.824219 765.347656 396.246094 764.714844 395.839844 C 764.484375 395.726562 764.3125 392.324219 764.253906 388.285156 C 764.195312 384.191406 764.023438 378.480469 763.851562 375.542969 L 763.445312 370.234375 L 813.816406 370.234375 C 859.578125 370.234375 864.015625 370.292969 862.863281 371.160156 Z M 713.308594 615.097656 C 731.632812 631.9375 754.917969 653.332031 765.0625 662.675781 C 882.226562 770.34375 909.140625 794.96875 909.660156 794.910156 C 910.003906 794.851562 913.289062 794.277344 916.921875 793.585938 C 932.078125 790.757812 947.695312 790.757812 961.585938 793.585938 C 986.308594 798.601562 1002.15625 811.519531 1007.515625 831.183594 C 1009.1875 837.355469 1009.535156 848.082031 1008.265625 853.847656 C 1006.308594 862.671875 1001.464844 869.878906 994.089844 874.898438 C 985.503906 880.722656 972.417969 884.066406 958.359375 884.066406 L 952.824219 884.066406 L 952.480469 892.257812 C 951.210938 922.761719 940.03125 939.601562 919.226562 942.371094 C 913.867188 943.121094 906.429688 942.371094 900.378906 940.523438 C 880.09375 934.296875 866.492188 914.113281 861.824219 883.203125 C 860.269531 872.878906 860.671875 850.734375 862.515625 844.21875 C 862.6875 843.527344 854.621094 835.742188 835.257812 817.976562 C 820.097656 804.023438 798.257812 783.953125 786.671875 773.34375 C 775.089844 762.671875 743.21875 733.378906 715.785156 708.234375 C 688.351562 683.03125 665.472656 662.042969 664.898438 661.523438 C 664.148438 660.773438 663.515625 658.0625 662.476562 650.679688 C 660.691406 638.570312 658.152344 624.785156 655.503906 613.078125 C 654.40625 608.179688 653.714844 604.027344 653.945312 603.796875 C 654.175781 603.621094 657.921875 600.796875 662.1875 597.625 C 666.453125 594.453125 671.929688 590.128906 674.289062 588.050781 C 676.652344 585.976562 678.902344 584.304688 679.304688 584.359375 C 679.707031 584.417969 694.980469 598.257812 713.308594 615.097656 Z M 346.65625 588.570312 C 349.132812 590.648438 353.6875 594.28125 356.796875 596.644531 C 359.96875 599.007812 362.503906 601.199219 362.503906 601.488281 C 362.503906 601.777344 361.984375 604.3125 361.292969 607.082031 C 357.605469 622.824219 353.28125 646.816406 352.128906 658.003906 C 351.785156 661.636719 351.207031 665.210938 350.976562 665.847656 C 350.6875 666.539062 339.507812 677.09375 326.136719 689.203125 C 312.710938 701.371094 295.882812 716.652344 288.734375 723.171875 C 268.738281 741.335938 210.585938 794.101562 183.328125 818.84375 L 158.949219 840.988281 L 159.292969 844.21875 C 160.964844 858.117188 160.734375 871.726562 158.71875 883.492188 C 153.300781 914.574219 138.085938 934.355469 116.128906 938.910156 C 102.125 941.792969 90.480469 938.910156 82.011719 930.433594 C 73.25 921.609375 68.582031 907.019531 68.351562 888.105469 L 68.292969 880.894531 L 61.953125 880.78125 C 26.914062 880.085938 8.472656 862.324219 12.910156 833.492188 C 16.023438 813.019531 29.851562 798.660156 52.847656 792.140625 C 68.410156 787.703125 86.964844 787.296875 105.640625 790.988281 L 112.957031 792.488281 L 118.605469 787.355469 C 121.660156 784.53125 138.316406 769.363281 155.605469 753.675781 C 246.261719 671.441406 288.214844 633.378906 313.515625 610.3125 C 328.902344 596.296875 341.640625 584.820312 341.871094 584.820312 C 342.042969 584.765625 344.234375 586.4375 346.65625 588.570312 Z M 379.214844 611.867188 C 386.535156 616.714844 404.632812 625.59375 417.425781 630.667969 L 425.898438 634.015625 L 425.898438 677.667969 L 424.628906 677.324219 C 423.882812 677.09375 420.078125 675.59375 416.101562 674.035156 C 401.519531 668.210938 380.195312 656.964844 369.707031 649.585938 C 366.539062 647.335938 366.25 647.046875 366.421875 645.257812 C 366.769531 642.144531 369.1875 629.113281 371.492188 618.386719 L 373.625 608.410156 L 375.699219 609.675781 C 376.855469 610.371094 378.410156 611.351562 379.214844 611.867188 Z M 642.59375 611.582031 C 642.59375 611.695312 643.398438 615.503906 644.378906 620.058594 C 645.359375 624.613281 647.03125 633.207031 648.070312 639.261719 C 649.855469 649.355469 649.914062 650.21875 649.046875 650.910156 C 645.820312 653.332031 631.066406 661.695312 623 665.730469 C 614.929688 669.710938 598.792969 676.574219 594.355469 677.898438 L 593.03125 678.246094 L 593.03125 634.589844 L 603.578125 630.4375 C 614.410156 626.171875 631.414062 617.925781 637.984375 613.714844 C 641.554688 611.464844 642.59375 611.003906 642.59375 611.582031 Z M 447.742188 640.414062 C 461.339844 643.816406 478.113281 646.585938 490.15625 647.335938 C 493.039062 647.507812 496.957031 647.796875 498.976562 647.96875 L 502.546875 648.316406 L 502.546875 692.027344 L 500.128906 692.027344 C 486.066406 691.972656 454.542969 686.894531 440.765625 682.457031 L 438 681.535156 L 438 659.617188 C 438 639.550781 438.058594 637.703125 438.921875 638.050781 C 439.441406 638.28125 443.417969 639.320312 447.742188 640.414062 Z M 580.925781 660.253906 L 580.925781 682.109375 L 579.082031 682.746094 C 564.847656 687.242188 534.015625 692.027344 518.859375 692.027344 L 514.652344 692.027344 L 514.652344 648.316406 L 521.453125 647.96875 C 539.261719 646.988281 556.144531 644.507812 570.898438 640.761719 C 575.625 639.550781 579.832031 638.511719 580.234375 638.511719 C 580.753906 638.398438 580.925781 643.125 580.925781 660.253906 Z M 374.03125 666.769531 C 388.667969 675.59375 414.660156 687.589844 424.34375 690.011719 L 425.898438 690.414062 L 425.898438 737.011719 L 424.34375 736.375 C 403.304688 728.417969 388.265625 720.863281 370.457031 709.15625 L 362.503906 704.023438 L 362.503906 691.742188 C 362.503906 680.554688 363.136719 667.460938 364 662.734375 C 364.289062 660.886719 364.347656 660.828125 365.558594 661.636719 C 366.25 662.097656 370.054688 664.40625 374.03125 666.769531 Z M 652.621094 689.144531 L 652.679688 707.886719 L 644.035156 713.195312 C 629.914062 721.960938 610.03125 731.53125 595.277344 736.722656 L 593.03125 737.53125 L 593.03125 690.992188 L 594.644531 690.644531 C 604.324219 688.28125 630.777344 676.226562 645.300781 667.578125 L 651.527344 663.886719 L 652.046875 667.171875 C 652.277344 668.960938 652.5625 678.824219 652.621094 689.144531 Z M 464.511719 700.390625 C 474.367188 702.0625 485.664062 703.390625 495.515625 703.910156 L 502.546875 704.3125 L 502.546875 751.3125 L 497.824219 751.023438 C 478.804688 749.929688 460.878906 747.046875 442.496094 742.144531 L 438 740.933594 L 438 694.507812 L 447.050781 696.699219 C 452.0625 697.910156 459.902344 699.582031 464.511719 700.390625 Z M 580.925781 718.152344 L 580.925781 741.453125 L 576.203125 742.664062 C 558.105469 747.390625 541.21875 749.988281 521.164062 751.199219 L 514.652344 751.542969 L 514.652344 704.3125 L 523.757812 703.964844 C 539.492188 703.273438 557.816406 700.621094 572.570312 696.929688 C 576.664062 695.894531 580.234375 695.027344 580.523438 694.96875 C 580.753906 694.914062 580.925781 705.410156 580.925781 718.152344 Z M 369.878906 723.34375 C 403.191406 744.277344 439.789062 756.964844 480.707031 761.867188 C 496.09375 763.710938 524.621094 763.710938 539.894531 761.867188 C 578.21875 757.253906 613.894531 745.429688 644.898438 726.976562 C 653.253906 722.015625 652.96875 721.902344 651.816406 730.378906 C 645.992188 775.359375 611.816406 813.480469 567.671875 824.320312 C 555.339844 827.320312 551.421875 827.550781 507.5625 827.550781 C 459.726562 827.550781 456.097656 827.207031 440.074219 822.074219 C 422.84375 816.480469 407.109375 806.558594 394.085938 793.007812 C 378.0625 776.398438 367.921875 756.214844 364.347656 734.128906 C 363.136719 726.515625 362.386719 719.132812 362.792969 719.132812 C 362.964844 719.132812 366.132812 721.035156 369.878906 723.34375 Z M 369.878906 723.34375 " />
    <path style=" stroke:none;fill-rule:nonzero;fill:rgb(0%,0%,0%);fill-opacity:1;" d="M 389.878906 392.207031 C 362.675781 395.839844 339.164062 413.082031 327.347656 437.882812 C 324.234375 444.339844 321.988281 451.492188 320.71875 458.929688 C 319.683594 464.753906 319.511719 478.539062 320.433594 484.132812 C 325.90625 518.617188 351.378906 544.914062 385.84375 551.71875 C 393.507812 553.21875 408.089844 553.046875 415.929688 551.433594 C 439.441406 546.414062 458.691406 532.402344 470.449219 511.8125 C 473.90625 505.875 476.324219 499.585938 478.515625 491.339844 C 480.1875 484.996094 480.246094 484.132812 480.300781 472.886719 C 480.359375 459.96875 479.898438 456.914062 476.554688 446.472656 C 467.855469 419.945312 444.628906 399.300781 416.503906 393.246094 C 410.28125 391.917969 395.988281 391.34375 389.878906 392.207031 Z M 389.878906 392.207031 " />
    <path style=" stroke:none;fill-rule:nonzero;fill:rgb(0%,0%,0%);fill-opacity:1;" d="M 610.089844 392.148438 C 578.277344 396.1875 551.421875 418.964844 542.601562 449.53125 C 539.953125 458.699219 539.261719 464.640625 539.605469 475.191406 C 540.066406 488.109375 542.140625 496.703125 547.5 507.601562 C 558.738281 530.441406 578.796875 546.011719 604.152344 551.433594 C 612.683594 553.21875 627.78125 553.21875 635.90625 551.375 C 652.621094 547.566406 665.242188 540.761719 676.597656 529.402344 C 687.71875 518.273438 694.40625 506.507812 698.324219 491.050781 C 700.339844 483.09375 700.859375 467.753906 699.359375 458.929688 C 693.828125 425.828125 668.125 399.472656 634.984375 393.015625 C 629.339844 391.917969 615.738281 391.457031 610.089844 392.148438 Z M 610.089844 392.148438 " />
    <path style=" stroke:none;fill-rule:nonzero;fill:rgb(0%,0%,0%);fill-opacity:1;" d="M 500.242188 538.976562 C 481.457031 543.011719 470.101562 562.851562 476.09375 581.015625 C 480.589844 594.394531 492.75 603.21875 506.871094 603.277344 C 515.976562 603.332031 523.527344 600.21875 529.980469 593.761719 C 536.4375 587.300781 539.433594 580.09375 539.433594 570.925781 C 539.433594 555.066406 529 542.148438 513.5 538.859375 C 508.832031 537.878906 505.085938 537.878906 500.242188 538.976562 Z M 500.242188 538.976562 " />
  </g>
</svg>