<?xml version="1.0" encoding="UTF-8"?>
<svg xmlns="http://www.w3.org/2000/svg" xmlns:xlink="http://www.w3.org/1999/xlink" width="1024px" height="1047px" viewBox="0 0 1024 1047" version="1.1">
<g id="surface1">
<path style=" stroke:none;fill-rule:nonzero;fill:rgb(0%,0%,0%);fill-opacity:1;" d="M 254.660156 7.066406 C 248.441406 11.089844 245.027344 15.597656 245.027344 20.105469 C 245.027344 21.8125 244.296875 23.152344 243.445312 23.152344 C 240.273438 23.152344 233.8125 31.4375 232.839844 36.800781 C 230.277344 50.207031 240.03125 80.304688 255.632812 107.113281 L 262.949219 119.785156 L 252.464844 128.558594 C 241.25 137.941406 227.472656 153.417969 220.039062 164.996094 C 210.285156 180.347656 205.898438 194.851562 203.460938 219.832031 C 202.605469 229.457031 200.898438 238.109375 198.703125 244.933594 C 194.316406 258.214844 193.339844 266.625 195.046875 277.226562 C 197.484375 292.335938 206.871094 306.59375 220.28125 315.488281 L 225.523438 319.023438 L 211.75 319.753906 C 203.824219 320.242188 194.074219 319.996094 188.34375 319.265625 C 182.980469 318.535156 171.765625 317.074219 163.351562 316.097656 C 150.308594 314.515625 131.046875 310.613281 122.515625 307.691406 L 120.078125 306.835938 L 122.515625 308.910156 C 128.242188 313.78125 156.890625 325.601562 174.445312 330.355469 C 186.390625 333.523438 191.148438 334.253906 208.214844 334.742188 L 228.082031 335.472656 L 222.230469 339.375 C 199.921875 354.363281 185.539062 392.992188 171.277344 475.855469 C 168.839844 489.867188 164.570312 524.597656 164.570312 530.082031 C 164.570312 533.125 166.765625 530.933594 168.105469 526.546875 C 170.542969 518.382812 187.125 486.210938 195.046875 474.027344 C 202.972656 462.082031 214.796875 446.972656 215.527344 447.828125 C 215.894531 448.070312 215.160156 454.773438 214.1875 462.691406 C 213.089844 470.613281 211.992188 485.113281 211.503906 494.984375 C 210.042969 535.5625 204.679688 560.667969 191.390625 590.15625 C 189.925781 593.445312 188.953125 596.371094 189.316406 596.613281 C 190.660156 597.953125 223.085938 560.179688 233.203125 545.433594 L 238.324219 538 L 239.910156 549.578125 C 240.761719 555.914062 241.859375 578.703125 242.347656 600.148438 L 243.199219 639.144531 L 246.125 633.050781 C 247.589844 629.636719 251.125 620.621094 253.804688 612.945312 C 256.488281 605.265625 258.804688 598.808594 259.046875 598.5625 C 259.167969 598.320312 260.632812 600.757812 262.21875 604.046875 C 263.679688 607.214844 267.824219 613.066406 271.238281 617.207031 C 274.652344 621.230469 281.355469 629.761719 285.988281 636.097656 C 299.765625 654.617188 318.539062 672.410156 330.605469 678.257812 C 333.042969 679.476562 338.894531 685.691406 345.601562 694.222656 C 359.132812 711.527344 377.171875 730.78125 385.585938 736.871094 C 389.121094 739.308594 398.140625 746.011719 405.578125 751.617188 C 430.445312 770.140625 442.757812 775.867188 460.800781 777.328125 L 469.941406 778.058594 L 469.941406 788.417969 C 469.820312 794.144531 469.210938 801.945312 468.234375 805.722656 L 466.773438 812.789062 L 456.65625 812.425781 C 450.195312 812.300781 445.5625 812.789062 443.488281 813.765625 C 439.832031 815.835938 434.589844 823.636719 431.785156 831.433594 C 430.691406 834.601562 428.859375 837.40625 427.886719 837.769531 C 426.910156 838.015625 420.691406 839.355469 414.109375 840.695312 C 405.941406 842.28125 401.554688 843.863281 400.089844 845.449219 C 398.628906 847.277344 392.535156 849.226562 379.125 852.394531 C 368.761719 854.832031 359.496094 857.511719 358.523438 858.242188 C 356.328125 860.070312 357.546875 887 360.839844 910.277344 C 362.179688 919.292969 364.375 937.449219 365.714844 950.488281 C 369.25 985.339844 370.46875 994.359375 373.761719 1013.246094 C 378.269531 1038.957031 381.074219 1044.683594 387.902344 1042.003906 C 389.484375 1041.394531 395.335938 1037.984375 401.066406 1034.328125 C 412.769531 1027.015625 433.492188 1016.65625 453.121094 1008.25 C 460.3125 1005.203125 476.648438 997.402344 489.449219 990.945312 C 521.996094 974.371094 562.710938 945.980469 575.757812 930.871094 C 578.558594 927.578125 584.410156 921.972656 588.800781 918.441406 C 605.988281 904.671875 631.101562 881.515625 661.941406 851.175781 C 700.097656 813.765625 711.191406 803.773438 724.601562 795.121094 C 737.644531 786.589844 754.710938 777.9375 762.148438 776.109375 C 773.972656 773.0625 766.292969 770.75 748.496094 771.96875 C 732.039062 773.1875 694.003906 773.429688 688.394531 772.453125 C 685.835938 771.96875 682.179688 770.261719 680.351562 768.433594 C 677.914062 766.117188 675.839844 765.265625 672.0625 765.265625 C 667.308594 765.265625 666.574219 764.777344 658.042969 754.90625 C 653.164062 749.179688 648.65625 744.550781 648.167969 744.550781 C 646.828125 744.550781 637.804688 749.179688 637.195312 750.277344 C 636.832031 750.886719 639.269531 755.761719 642.558594 761.367188 C 645.851562 766.847656 648.535156 772.332031 648.535156 773.550781 C 648.535156 776.234375 599.039062 826.316406 584.535156 838.378906 C 578.558594 843.375 568.6875 851.90625 562.589844 857.144531 C 513.097656 900.769531 490.179688 920.753906 471.160156 936.960938 C 418.132812 982.414062 414.109375 985.828125 413.011719 985.828125 C 411.792969 985.828125 410.941406 975.589844 409.722656 949.515625 L 408.625 926.117188 L 418.621094 916.003906 C 424.105469 910.519531 432.152344 901.988281 436.417969 897.113281 C 443.367188 889.4375 444.953125 888.339844 448.609375 888.339844 C 450.925781 888.21875 454.09375 887.609375 455.679688 886.757812 C 457.144531 885.90625 467.140625 876.886719 477.867188 866.652344 C 495.542969 849.710938 498.226562 846.542969 509.925781 828.996094 C 516.875 818.394531 527.726562 801.457031 533.941406 791.464844 C 553.8125 759.417969 558.445312 752.105469 583.4375 714.449219 C 596.96875 694.101562 607.574219 677.527344 607.207031 677.527344 C 606.84375 677.527344 599.648438 683.863281 591.238281 691.542969 C 546.378906 732.851562 523.824219 750.15625 498.957031 762.460938 C 489.082031 767.335938 486.398438 768.191406 477.988281 768.675781 C 464.335938 769.410156 459.945312 768.433594 457.144531 763.679688 C 451.902344 755.152344 453.730469 753.324219 475.183594 745.769531 C 481.402344 743.574219 486.277344 741.625 486.035156 741.382812 C 485.789062 741.136719 476.648438 741.382812 465.554688 741.992188 C 437.394531 743.332031 424.230469 741.625 424.230469 736.628906 C 424.230469 735.410156 430.203125 734.921875 448.976562 734.433594 C 474.210938 733.824219 480.792969 732.851562 504.5625 726.269531 C 513.585938 723.710938 518.828125 721.519531 516.023438 721.398438 C 515.292969 721.398438 505.90625 723.347656 495.300781 725.539062 C 484.691406 727.855469 471.894531 730.171875 466.773438 730.65625 C 458.117188 731.390625 457.265625 731.265625 456.046875 728.953125 C 455.3125 727.613281 454.703125 721.882812 454.703125 716.277344 L 454.703125 706.164062 L 473.355469 701.410156 C 499.6875 694.710938 499.199219 694.832031 501.515625 699.339844 C 502.613281 701.410156 503.710938 703.117188 503.832031 703.117188 C 504.078125 703.117188 504.199219 700.4375 504.199219 697.023438 C 504.078125 693.734375 503.710938 690.933594 503.222656 690.933594 C 502.613281 690.933594 502.246094 688.738281 502.246094 686.058594 C 502.246094 683.378906 501.761719 681.183594 501.027344 681.183594 C 500.417969 681.183594 499.808594 683.011719 499.808594 685.328125 C 499.808594 689.957031 497.492188 693.003906 493.347656 693.980469 C 458.726562 701.65625 456.410156 702.019531 454.949219 700.316406 C 453.363281 698.367188 451.046875 687.03125 451.046875 681.183594 C 451.046875 676.675781 451.292969 676.308594 456.046875 675.089844 C 458.847656 674.359375 471.039062 669.363281 483.230469 664 C 510.050781 652.179688 528.457031 647.183594 546.253906 646.820312 C 556.496094 646.699219 558.8125 647.0625 563.929688 649.621094 C 569.171875 652.179688 569.90625 653.035156 570.269531 656.933594 C 570.515625 659.25 570.148438 662.660156 569.417969 664.367188 C 568.199219 667.78125 561.492188 671.433594 556.617188 671.433594 C 553.8125 671.433594 553.324219 670.824219 552.714844 666.316406 L 551.863281 661.320312 L 549.058594 666.804688 C 547.351562 670.214844 543.816406 674.117188 540.039062 676.917969 C 534.429688 680.941406 533.089844 683.621094 536.625 683.621094 C 537.355469 683.621094 539.0625 684.472656 540.28125 685.691406 C 543.085938 688.25 544.304688 687.03125 542.230469 683.742188 C 540.039062 680.207031 541.867188 678.867188 551.375 677.164062 C 558.203125 676.066406 559.664062 676.066406 562.46875 677.894531 C 566.980469 680.941406 567.710938 685.328125 564.664062 691.664062 C 560.273438 700.558594 563.929688 698.976562 570.390625 689.105469 C 577.707031 678.015625 580.753906 669.363281 580.023438 662.296875 C 578.804688 651.816406 571 645.84375 555.519531 643.40625 C 537.84375 640.484375 512.609375 646.089844 474.941406 661.078125 C 454.949219 668.996094 445.441406 671.679688 430.691406 673.261719 C 425.203125 673.871094 423.007812 673.75 423.007812 672.652344 C 423.007812 670.949219 429.347656 661.566406 432.03125 659.371094 C 434.589844 657.300781 434.589844 653.644531 432.03125 652.667969 C 428.007812 651.085938 424.105469 652.058594 420.207031 655.59375 C 416.546875 658.761719 415.085938 659.25 408.867188 659.25 C 404.480469 659.25 399.96875 658.394531 397.410156 657.054688 C 392.410156 654.617188 392.535156 657.054688 394.972656 621.230469 C 396.921875 592.226562 396.3125 588.9375 384.851562 568.464844 L 377.296875 555.0625 L 376.929688 559.8125 L 376.5625 564.445312 L 371.078125 563.835938 C 365.957031 563.347656 327.800781 551.40625 310.734375 545.191406 C 302.933594 542.265625 302.566406 541.902344 299.519531 535.199219 C 284.648438 502.054688 275.625 466.347656 275.503906 441.125 L 275.503906 433.203125 L 284.648438 448.921875 C 299.277344 473.902344 315.488281 496.324219 330.972656 512.777344 C 336.214844 518.382812 340.722656 522.648438 340.96875 522.28125 C 341.210938 522.039062 337.308594 514.238281 332.070312 504.855469 C 314.027344 472.808594 303.910156 447.339844 298.179688 419.800781 C 293.914062 399.328125 292.207031 380.683594 292.9375 364.839844 C 293.546875 351.925781 296.714844 336.328125 298.667969 336.328125 C 300.738281 336.328125 359.496094 359.234375 373.152344 365.328125 C 377.417969 367.277344 383.390625 371.300781 386.316406 374.222656 C 389.242188 377.148438 401.1875 392.136719 412.648438 407.613281 C 444.832031 450.628906 474.941406 485.847656 493.226562 502.054688 C 498.226562 506.441406 504.441406 513.019531 507.246094 516.675781 C 509.925781 520.332031 513.21875 524.476562 514.558594 525.9375 L 517 528.496094 L 506.269531 534.710938 C 500.296875 538.246094 485.667969 546.042969 473.722656 552.136719 C 452.511719 562.859375 451.777344 563.105469 446.902344 561.886719 C 441.296875 560.542969 438.980469 561.640625 441.78125 564.566406 C 444.34375 567.125 444.222656 567.492188 440.441406 569.5625 C 437.273438 571.144531 436.539062 571.023438 428.859375 567.125 C 424.105469 564.6875 419.351562 561.277344 417.402344 558.71875 C 413.136719 553.113281 411.0625 554.695312 413.378906 561.886719 C 415.9375 569.804688 421.914062 573.828125 432.882812 575.289062 C 450.074219 577.605469 449.707031 577.238281 442.515625 588.449219 C 437.882812 595.519531 436.417969 599.171875 438.613281 598.078125 C 439.101562 597.832031 442.757812 596.128906 446.78125 594.175781 C 450.804688 592.347656 454.949219 590.398438 456.046875 589.789062 C 457.386719 589.179688 459.214844 589.546875 461.410156 591.007812 C 463.847656 592.59375 465.554688 592.957031 467.015625 592.226562 C 468.722656 591.253906 468.96875 589.789062 468.480469 583.332031 C 467.75 574.316406 469.699219 569.5625 477.621094 560.421875 C 481.890625 555.671875 501.761719 542.265625 504.6875 542.265625 C 505.171875 542.265625 505.660156 545.433594 505.539062 549.332031 C 505.539062 557.863281 507.976562 562.25 513.949219 564.199219 C 519.4375 566.027344 524.3125 564.808594 528.214844 560.789062 C 535.648438 552.988281 535.40625 543.484375 527.605469 537.027344 L 522.605469 532.882812 L 527.238281 529.347656 C 531.625 526.058594 532.722656 525.816406 541.746094 525.9375 C 552.960938 526.058594 560.640625 528.617188 561.617188 532.640625 C 562.101562 534.589844 562.589844 534.710938 563.320312 533.492188 C 564.054688 532.273438 565.761719 533.25 569.90625 537.390625 C 580.144531 547.507812 582.460938 556.890625 577.828125 570.292969 C 576.609375 573.949219 575.757812 577.117188 576 577.359375 C 576.121094 577.605469 578.316406 575.410156 580.632812 572.730469 C 585.996094 566.394531 597.332031 543.851562 597.332031 539.339844 C 597.332031 537.636719 597.941406 536.171875 598.675781 536.171875 C 599.769531 536.171875 602.941406 542.511719 612.9375 564.199219 C 614.765625 568.101562 613.914062 555.546875 610.742188 533.734375 C 609.523438 525.328125 608.671875 518.382812 608.792969 518.261719 C 609.15625 517.894531 618.667969 548.238281 619.886719 553.84375 L 620.738281 557.5 L 621.957031 553.84375 C 622.566406 551.769531 623.421875 549.457031 623.664062 548.480469 C 624.394531 546.042969 629.394531 553.597656 634.757812 565.175781 C 638.78125 573.707031 639.023438 574.925781 638.171875 582.355469 C 637.5625 588.816406 631.953125 618.425781 628.417969 634.878906 C 627.320312 639.386719 634.636719 625.371094 641.21875 609.898438 C 650.363281 588.816406 661.457031 566.515625 665.601562 560.789062 C 669.621094 555.425781 673.769531 554.085938 676.449219 557.375 C 678.644531 560.058594 676.9375 564.6875 668.890625 576.75 C 659.140625 591.738281 658.042969 594.542969 658.53125 604.535156 C 658.894531 614.285156 657.796875 615.867188 644.632812 624.761719 C 636.097656 630.367188 634.148438 633.660156 639.269531 633.660156 C 642.195312 633.660156 667.183594 621.839844 673.15625 617.695312 C 678.644531 613.796875 680.59375 608.921875 679.007812 603.316406 C 677.667969 598.078125 671.695312 592.226562 667.917969 592.226562 C 664.992188 592.226562 664.992188 590.765625 667.792969 588.207031 C 669.378906 586.742188 672.304688 586.136719 677.425781 586.136719 C 683.277344 586.136719 685.714844 585.527344 689.371094 583.089844 C 691.808594 581.261719 694.125 580.164062 694.371094 580.40625 C 694.613281 580.652344 694.125 583.089844 693.152344 585.890625 C 690.589844 593.082031 692.664062 593.203125 697.050781 586.136719 C 700.707031 580.285156 703.390625 578.335938 703.390625 581.503906 C 703.269531 589.667969 677.058594 624.761719 663.285156 635.121094 C 655.117188 641.335938 643.414062 647.308594 633.050781 650.839844 C 628.785156 652.179688 625.371094 653.765625 625.371094 654.375 C 625.371094 654.984375 627.199219 656.691406 629.394531 658.152344 C 631.464844 659.613281 635 662.417969 637.074219 664.367188 L 640.851562 667.902344 L 641.460938 662.296875 C 641.828125 659.25 642.558594 656.324219 643.046875 655.835938 C 644.386719 654.496094 664.625 655.226562 670.476562 656.8125 C 673.28125 657.542969 675.960938 657.910156 676.328125 657.542969 C 676.691406 657.175781 674.621094 652.304688 671.695312 646.941406 L 666.574219 636.949219 L 672.425781 637.558594 C 679.617188 638.289062 689.492188 642.796875 698.269531 649.5 C 701.804688 652.179688 705.097656 654.375 705.707031 654.375 C 706.195312 654.375 706.074219 650.355469 705.21875 645.480469 C 704.367188 640.726562 703.390625 634.632812 703.023438 632.074219 L 702.292969 627.445312 L 706.804688 630.125 C 730.820312 644.503906 767.632812 663.148438 786.894531 670.824219 C 796.039062 674.480469 811.277344 678.257812 834.074219 682.402344 C 852.722656 685.9375 863.574219 685.449219 873.082031 680.816406 C 881.371094 676.796875 883.808594 673.261719 884.417969 664.976562 C 884.539062 661.441406 885.152344 657.421875 885.636719 655.835938 C 886.855469 652.058594 884.539062 652.425781 878.933594 656.8125 C 873.691406 660.957031 865.523438 664.734375 865.523438 663.027344 C 865.523438 662.417969 868.328125 660.222656 871.617188 658.03125 C 878.566406 653.523438 882.589844 649.011719 882.589844 645.722656 C 882.589844 642.433594 881.738281 642.796875 875.765625 648.28125 C 872.839844 650.964844 869.304688 653.15625 867.960938 653.15625 C 864.304688 653.15625 865.035156 651.085938 869.546875 648.769531 C 875.398438 645.84375 878.933594 642.066406 878.933594 638.898438 C 878.933594 637.316406 878.566406 636.097656 878.203125 636.097656 C 877.714844 636.097656 874.910156 638.289062 871.984375 641.09375 C 864.671875 647.792969 863.574219 646.089844 870.765625 639.144531 C 873.933594 636.097656 876.496094 632.929688 876.496094 631.953125 C 876.496094 628.296875 873.933594 628.785156 868.570312 633.78125 C 861.378906 640.363281 861.378906 637.070312 868.570312 630.003906 C 871.617188 627.078125 874.058594 623.910156 874.058594 623.179688 C 874.058594 619.644531 871.132812 620.253906 866.621094 624.640625 C 859.429688 631.585938 859.308594 628.542969 866.5 621.230469 C 872.105469 615.625 874.300781 611.726562 872.105469 611.726562 C 871.742188 611.726562 869.058594 614.285156 866.132812 617.332031 C 861.011719 622.9375 858.210938 623.546875 858.210938 619.035156 C 858.210938 617.816406 860.039062 615.625 862.355469 614.285156 C 866.132812 611.847656 868.691406 608.433594 867.472656 607.214844 C 867.230469 606.972656 864.914062 608.433594 862.476562 610.628906 C 858.085938 614.527344 857.84375 614.527344 856.257812 612.335938 C 854.675781 610.261719 855.160156 609.53125 861.011719 604.292969 C 868.691406 597.34375 867.960938 594.910156 860.039062 601.488281 C 855.40625 605.265625 854.1875 605.753906 853.210938 604.292969 C 851.382812 601.367188 851.992188 600.148438 856.382812 597.832031 C 861.5 595.03125 864.671875 591.617188 864.0625 589.789062 C 863.816406 588.9375 861.5 590.15625 858.332031 592.714844 C 855.527344 595.152344 852.359375 597.101562 851.503906 597.101562 C 848.457031 597.101562 848.824219 592.957031 851.992188 590.15625 C 855.769531 587.109375 854.917969 585.527344 850.40625 587.351562 C 847.605469 588.328125 846.996094 588.207031 845.773438 585.527344 C 844.800781 583.332031 844.800781 582.113281 845.898438 580.773438 C 847.847656 578.335938 846.507812 575.777344 844.191406 577.605469 C 843.09375 578.578125 842.484375 578.335938 841.875 576.875 C 840.777344 574.191406 840.898438 573.949219 843.09375 573.949219 C 844.191406 573.949219 844.800781 573.21875 844.433594 572.363281 C 844.191406 571.632812 842.726562 571.144531 841.144531 571.269531 C 838.582031 571.632812 838.460938 571.390625 839.191406 567.855469 C 839.800781 564.808594 839.4375 563.835938 837.730469 563.347656 C 835.046875 562.738281 826.148438 543.117188 824.078125 533.125 C 822.371094 525.207031 816.761719 513.265625 807.132812 497.300781 C 801.890625 488.648438 801.15625 486.820312 802.742188 485.96875 C 805.546875 484.382812 804.9375 482.554688 801.644531 482.554688 C 797.867188 482.554688 796.769531 480.851562 799.085938 478.898438 C 801.402344 476.949219 800.304688 475.246094 797.257812 476.097656 C 794.332031 476.828125 793.84375 473.417969 796.648438 472.320312 C 799.574219 471.222656 798.964844 467.566406 796.039062 468.296875 C 793.113281 469.03125 791.527344 467.078125 793.476562 465.128906 C 795.429688 463.179688 795.183594 460.621094 792.992188 460.621094 C 791.894531 460.621094 790.675781 459.648438 790.308594 458.429688 C 789.089844 455.136719 773 429.183594 766.414062 419.800781 C 759.101562 409.441406 749.347656 397.863281 744.230469 393.355469 C 742.277344 391.648438 740.9375 389.824219 741.304688 389.335938 C 741.789062 388.96875 747.03125 387.75 752.882812 386.898438 L 763.734375 385.191406 L 767.023438 389.089844 C 778.117188 402.128906 786.652344 413.828125 792.015625 423.578125 C 795.550781 429.667969 800.546875 438.078125 803.230469 442.34375 C 805.914062 446.484375 809.324219 452.945312 810.667969 456.722656 C 812.128906 460.378906 817.492188 471.953125 822.613281 482.191406 C 830.292969 497.667969 832.367188 500.835938 834.4375 500.589844 C 840.046875 499.738281 869.789062 456.234375 882.101562 430.765625 C 902.582031 388.726562 909.289062 356.3125 907.824219 305.863281 C 907.214844 281.003906 904.777344 256.265625 903.3125 257.972656 C 902.828125 258.460938 900.144531 268.695312 897.339844 280.636719 C 893.441406 297.332031 891.488281 303.425781 888.6875 307.445312 C 886.734375 310.25 884.054688 316.464844 882.710938 321.339844 C 881.371094 326.457031 878.324219 333.035156 875.519531 337.179688 C 869.546875 346.074219 866.742188 351.4375 866.742188 354.117188 C 866.742188 355.824219 867.472656 355.582031 870.277344 352.898438 L 873.8125 349.488281 L 870.886719 355.335938 C 867.960938 361.0625 866.988281 366.304688 869.058594 365.085938 C 869.546875 364.71875 869.914062 367.277344 869.667969 370.691406 C 869.425781 375.6875 868.328125 378.613281 864.546875 384.339844 C 859.550781 391.894531 853.332031 398.597656 853.332031 396.523438 C 853.332031 395.792969 856.015625 392.136719 859.429688 388.238281 C 866.253906 379.953125 868.207031 374.46875 864.914062 372.152344 C 862.964844 370.691406 862.964844 370.203125 864.792969 364.839844 C 867.109375 357.894531 867.109375 358.261719 865.035156 358.261719 C 864.0625 358.261719 859.550781 364.355469 855.039062 371.910156 C 847.605469 384.21875 846.996094 385.800781 848.214844 388.96875 C 849.675781 393.113281 848.214844 393.476562 845.652344 389.578125 C 844.554688 387.871094 844.070312 385.3125 844.433594 383.242188 C 845.164062 380.074219 844.921875 379.828125 841.628906 380.683594 C 838.339844 381.535156 838.21875 381.535156 840.289062 379.21875 C 842.605469 376.785156 843.09375 372.273438 841.144531 371.054688 C 839.3125 369.960938 832.976562 377.394531 829.5625 384.582031 C 827.976562 387.996094 825.78125 391.527344 824.6875 392.382812 C 823.101562 393.722656 822.980469 393.476562 823.589844 390.066406 C 824.6875 385.070312 822.371094 385.070312 816.882812 390.1875 L 812.617188 394.210938 L 816.519531 388.847656 C 818.710938 385.800781 820.417969 382.632812 820.417969 381.78125 C 820.417969 378.734375 816.761719 378.613281 813.59375 381.414062 C 809.449219 385.433594 809.933594 382.875 814.445312 377.394531 C 818.347656 372.761719 818.46875 368.617188 814.8125 370.082031 C 813.105469 370.691406 812.984375 370.445312 814.203125 368.253906 C 817.980469 361.1875 812.738281 361.429688 807.007812 368.617188 C 804.207031 372.152344 801.769531 373.980469 799.816406 373.980469 C 797.136719 374.101562 797.5 373.492188 802.988281 367.644531 C 812.375 357.773438 814.324219 352.535156 807.617188 355.582031 C 803.960938 357.285156 803.839844 356.3125 807.007812 352.167969 C 808.351562 350.460938 809.449219 348.148438 809.449219 346.929688 C 809.449219 343.515625 804.570312 346.683594 797.5 354.847656 C 793.601562 359.359375 791.160156 361.1875 790.796875 360.210938 C 790.429688 359.234375 793.601562 354.726562 797.988281 349.976562 C 805.789062 341.324219 807.253906 338.765625 804.082031 338.765625 C 802.378906 338.765625 789.941406 351.800781 789.941406 353.628906 C 789.941406 354.117188 789.457031 354.605469 788.722656 354.605469 C 786.285156 354.605469 787.625 352.046875 793.476562 345.953125 C 800.425781 338.640625 803.109375 334.378906 801.402344 332.671875 C 800.671875 331.941406 797.746094 334.5 793.601562 339.375 C 789.941406 343.636719 786.652344 347.171875 786.285156 347.171875 C 785.921875 347.292969 784.335938 343.636719 782.75 339.007812 C 781.164062 334.5 779.582031 330.113281 779.214844 329.257812 C 778.972656 328.527344 779.582031 327.796875 780.554688 327.796875 C 782.996094 327.796875 794.820312 313.417969 794.820312 310.492188 C 794.820312 307.203125 793.355469 307.8125 790.308594 312.320312 C 788.722656 314.390625 785.433594 318.65625 782.871094 321.582031 L 778.117188 326.820312 L 776.777344 323.042969 C 776.046875 320.851562 771.902344 313.296875 767.632812 306.105469 C 763.367188 298.917969 756.664062 286.972656 752.882812 279.664062 C 742.035156 259.070312 728.257812 241.886719 695.589844 208.621094 C 675.230469 187.90625 652.191406 168.40625 631.464844 154.515625 L 628.417969 152.566406 L 634.515625 145.984375 C 646.460938 133.433594 647.800781 131.605469 645.972656 131.605469 C 643.777344 131.605469 627.929688 145.863281 626.835938 148.789062 C 625.980469 150.859375 625.859375 150.859375 623.300781 148.910156 L 620.496094 146.839844 L 625.980469 139.039062 C 629.027344 134.652344 631.222656 130.875 630.855469 130.507812 C 629.761719 129.535156 619.277344 140.5 618.542969 143.425781 C 617.933594 145.863281 617.449219 145.984375 615.132812 144.765625 C 613.789062 144.035156 612.449219 143.304688 612.207031 143.183594 C 611.960938 142.9375 612.9375 140.625 614.277344 137.820312 C 617.203125 132.214844 617.324219 131.605469 615.617188 131.605469 C 615.007812 131.605469 612.9375 133.800781 611.230469 136.480469 C 608.546875 140.5 607.695312 141.109375 605.746094 140.015625 C 604.402344 139.40625 603.429688 138.308594 603.429688 137.820312 C 603.429688 135.628906 613.179688 123.808594 616.839844 121.492188 C 620.617188 119.054688 621.59375 116.984375 619.03125 116.984375 C 616.960938 116.984375 600.992188 133.675781 600.992188 135.871094 C 600.992188 137.332031 600.382812 137.332031 597.941406 136.238281 C 596.234375 135.503906 594.894531 134.285156 594.894531 133.433594 C 594.894531 132.703125 597.699219 128.925781 601.113281 125.148438 C 611.109375 113.9375 606.230469 114.179688 595.75 125.390625 C 592.578125 128.804688 589.53125 131.605469 589.042969 131.605469 C 588.554688 131.605469 583.3125 128.925781 577.460938 125.636719 L 566.613281 119.785156 L 573.441406 112.472656 C 580.511719 104.796875 581.851562 102.726562 578.195312 104.675781 C 573.316406 107.234375 564.296875 116.128906 564.90625 117.714844 C 565.273438 118.6875 565.394531 119.421875 565.152344 119.421875 C 563.6875 119.421875 557.105469 116.617188 557.105469 116.007812 C 557.105469 115.644531 559.421875 112.839844 562.226562 110.039062 C 566.125 106.015625 566.855469 104.796875 565.152344 104.796875 C 562.226562 104.796875 554.179688 112.839844 555.398438 114.667969 C 556.007812 115.765625 555.640625 115.886719 553.933594 115.15625 C 534.796875 107.234375 510.902344 101.019531 483.351562 97 C 473.234375 95.414062 468.480469 94.074219 463.605469 91.394531 C 460.070312 89.320312 456.65625 87.738281 455.921875 87.738281 C 451.046875 87.738281 458.847656 94.074219 487.253906 112.839844 C 505.171875 124.78125 525.53125 139.527344 532.722656 145.621094 C 539.917969 151.835938 549.667969 159.878906 554.300781 163.53125 C 558.933594 167.308594 566.980469 174.378906 572.222656 179.375 L 581.851562 188.390625 L 573.074219 191.804688 C 562.835938 195.824219 562.710938 195.824219 552.230469 186.441406 L 545.523438 180.59375 L 551.863281 177.546875 C 555.398438 175.960938 557.957031 174.257812 557.46875 173.769531 C 557.105469 173.402344 551.617188 173.039062 545.523438 173.039062 L 534.308594 173.039062 L 488.105469 140.015625 C 462.75 121.734375 433.492188 100.53125 423.132812 92.734375 C 403.382812 77.746094 393.628906 71.042969 363.277344 51.425781 C 341.332031 37.289062 337.433594 35.21875 326.460938 31.925781 C 322.074219 30.464844 315.488281 27.785156 311.832031 25.832031 C 308.296875 23.882812 303.910156 21.8125 302.078125 21.445312 C 300.007812 20.960938 298.667969 19.863281 298.667969 18.644531 C 298.667969 16.816406 298.542969 16.816406 297.203125 18.523438 C 295.984375 19.984375 294.035156 20.226562 288.304688 19.617188 L 280.992188 18.886719 L 283.792969 16.085938 C 286.597656 13.28125 287.328125 10.96875 285.257812 10.96875 C 284.527344 10.96875 282.820312 12.917969 281.476562 15.230469 C 279.648438 18.277344 278.066406 19.496094 275.992188 19.496094 C 272.335938 19.496094 272.335938 19.375 276.113281 13.40625 C 279.894531 7.554688 279.894531 7.3125 276.359375 7.3125 C 274.285156 7.3125 272.578125 8.894531 270.019531 13.40625 C 267.824219 16.9375 265.507812 19.496094 264.289062 19.496094 C 261.609375 19.496094 261.609375 19.253906 264.535156 13.40625 C 267.703125 7.3125 267.582031 5.363281 264.289062 4.386719 C 260.386719 3.410156 260.753906 3.289062 254.660156 7.066406 Z M 258.558594 10.359375 C 255.632812 13.648438 254.902344 15.476562 255.511719 17.667969 C 256.121094 20.351562 255.878906 20.714844 252.953125 20.714844 C 250.269531 20.714844 249.90625 20.226562 250.390625 18.277344 C 250.757812 16.9375 251.488281 14.746094 251.855469 13.28125 C 252.464844 10.96875 258.925781 6.09375 261.363281 6.09375 C 261.851562 6.09375 260.632812 8.042969 258.558594 10.359375 Z M 270.75 129.414062 C 274.042969 133.675781 290.742188 154.515625 310.734375 179.253906 L 313.660156 182.90625 L 308.175781 188.636719 C 298.421875 198.871094 291.109375 208.863281 287.453125 216.785156 C 281.601562 229.457031 276.722656 245.910156 275.871094 255.535156 C 275.503906 260.410156 274.773438 264.429688 274.285156 264.429688 C 272.089844 264.429688 255.023438 244.691406 248.441406 234.574219 C 231.253906 208.253906 228.816406 178.15625 241.738281 152.6875 C 246.371094 143.546875 262.582031 124.292969 265.628906 124.292969 C 266.238281 124.292969 268.554688 126.609375 270.75 129.414062 Z M 638.414062 247.003906 C 664.136719 272.839844 685.105469 294.40625 685.105469 294.894531 C 685.105469 295.75 670.84375 294.285156 666.332031 293.066406 C 657.066406 290.386719 649.628906 286.609375 644.386719 281.613281 C 641.21875 278.566406 625.25 260.898438 608.914062 242.375 C 584.65625 214.714844 579.535156 208.375 580.511719 206.671875 C 581.730469 204.476562 588.554688 199.847656 590.507812 199.847656 C 591.238281 199.847656 612.691406 221.050781 638.414062 247.003906 Z M 350.597656 222.390625 C 350.964844 222.390625 339.871094 240.179688 337.433594 243.714844 L 335.238281 246.640625 L 335.238281 241.886719 C 335.238281 237.132812 339.382812 217.882812 340.847656 215.445312 C 341.332031 214.835938 343.648438 216.054688 346.085938 218.367188 C 348.402344 220.5625 350.597656 222.390625 350.597656 222.390625 Z M 210.042969 269.914062 C 214.066406 280.757812 219.429688 290.996094 224.914062 298.429688 C 230.644531 306.105469 230.644531 306.226562 227.109375 305.375 C 225.28125 304.886719 220.769531 302.449219 217.113281 300.011719 C 205.289062 291.96875 198.703125 274.789062 200.289062 255.902344 C 201.386719 242.617188 202.363281 242.375 205.53125 254.316406 C 206.996094 260.164062 209.066406 267.234375 210.042969 269.914062 Z M 904.167969 273.203125 C 903.800781 274.179688 903.4375 273.8125 903.4375 272.472656 C 903.3125 271.132812 903.679688 270.402344 904.046875 270.890625 C 904.410156 271.253906 904.535156 272.351562 904.167969 273.203125 Z M 902.949219 279.296875 C 902.582031 280.152344 902.339844 279.542969 902.339844 277.835938 C 902.339844 276.128906 902.582031 275.519531 902.949219 276.25 C 903.191406 277.105469 903.191406 278.566406 902.949219 279.296875 Z M 705.828125 316.464844 C 723.503906 335.230469 736.914062 350.585938 748.738281 365.449219 L 754.957031 373.25 L 746.542969 372.398438 C 726.066406 370.445312 727.160156 370.8125 719.117188 362.28125 C 703.632812 345.589844 693.515625 332.550781 694.855469 330.84375 C 695.832031 329.625 695.34375 329.136719 692.785156 328.527344 C 689.128906 327.554688 665.601562 305.132812 665.601562 302.570312 C 665.601562 301.71875 666.820312 300.746094 668.402344 300.378906 C 672.304688 299.527344 684.128906 297.574219 686.324219 297.574219 C 687.300781 297.574219 696.078125 306.105469 705.828125 316.464844 Z M 892.832031 315.855469 C 890.269531 320.972656 887.953125 325.117188 887.710938 324.75 C 887.222656 324.386719 894.171875 305.375 895.757812 302.816406 C 896.242188 302.085938 896.730469 302.695312 896.976562 303.914062 C 897.21875 305.253906 895.390625 310.613281 892.832031 315.855469 Z M 888.6875 343.515625 C 886.492188 347.902344 884.175781 350.949219 883.078125 350.949219 C 880.882812 350.949219 880.640625 351.4375 886.855469 340.59375 C 892.707031 330.355469 894.171875 332.671875 888.6875 343.515625 Z M 876.984375 345.464844 C 875.886719 347.171875 874.789062 348.511719 874.421875 348.511719 C 873.8125 348.511719 875.03125 346.320312 876.859375 343.882812 C 878.933594 341.199219 879.054688 342.296875 876.984375 345.464844 Z M 892.34375 354.117188 C 892.34375 354.484375 891.734375 355.824219 891.125 357.164062 C 889.171875 360.578125 887.222656 359.96875 888.929688 356.433594 C 890.148438 353.753906 892.34375 352.167969 892.34375 354.117188 Z M 883.320312 360.210938 C 882.101562 361.917969 880.882812 363.011719 880.519531 362.769531 C 880.273438 362.40625 880.882812 360.699219 882.101562 358.992188 C 883.199219 357.164062 884.417969 356.066406 884.785156 356.3125 C 885.027344 356.675781 884.417969 358.382812 883.320312 360.210938 Z M 799.695312 362.28125 C 799.695312 362.527344 798.476562 363.746094 797.011719 365.085938 L 794.210938 367.402344 L 796.527344 364.597656 C 798.71875 362.039062 799.695312 361.308594 799.695312 362.28125 Z M 878.933594 386.167969 C 878.324219 387.507812 877.105469 388.96875 876.25 389.457031 C 875.398438 390.066406 875.277344 389.699219 875.886719 388.605469 C 878.445312 384.09375 881.25 381.902344 878.933594 386.167969 Z M 833.828125 390.554688 C 832.976562 391.648438 832 392.136719 831.757812 391.894531 C 830.902344 391.039062 832.609375 388.726562 834.074219 388.726562 C 834.804688 388.726562 834.804688 389.457031 833.828125 390.554688 Z M 860.648438 398.472656 C 856.992188 403.105469 854.550781 405.054688 856.503906 401.765625 C 858.574219 398.472656 863.695312 392.503906 864.0625 392.992188 C 864.425781 393.234375 862.84375 395.671875 860.648438 398.472656 Z M 838.828125 395.792969 C 837.363281 398.597656 833.828125 401.640625 833.828125 400.058594 C 833.828125 399.449219 834.683594 397.742188 835.777344 396.28125 C 838.09375 392.992188 840.535156 392.625 838.828125 395.792969 Z M 842.972656 402.738281 C 841.144531 405.054688 839.191406 407.003906 838.582031 407.003906 C 837 407.003906 840.046875 400.546875 842.847656 398.109375 C 846.628906 394.695312 846.628906 397.742188 842.972656 402.738281 Z M 858.695312 407.492188 C 858.332031 408.464844 857.113281 409.5625 856.015625 410.050781 C 854.429688 410.660156 854.429688 410.292969 856.382812 408.222656 C 858.941406 405.296875 859.550781 405.175781 858.695312 407.492188 Z M 841.753906 415.535156 C 840.535156 416.875 838.949219 417.972656 838.339844 417.972656 C 837.609375 417.972656 838.09375 416.875 839.3125 415.535156 C 840.535156 414.195312 842.117188 413.097656 842.726562 413.097656 C 843.460938 413.097656 842.972656 414.195312 841.753906 415.535156 Z M 509.074219 439.175781 C 518.339844 445.023438 519.070312 445.753906 527.480469 459.402344 C 536.746094 474.269531 552.230469 503.636719 552.230469 506.316406 C 552.230469 508.144531 520.410156 526.789062 519.191406 525.570312 C 518.09375 524.351562 488.105469 434.542969 487.007812 429.183594 L 486.15625 425.28125 L 492.859375 429.183594 C 496.394531 431.375 503.710938 435.882812 509.074219 439.175781 Z M 553.570312 465.863281 C 555.277344 467.203125 582.703125 508.390625 582.703125 509.730469 C 582.703125 509.972656 579.777344 509.488281 576.367188 508.511719 C 572.832031 507.660156 566.980469 506.5625 563.566406 506.074219 C 558.566406 505.585938 557.105469 504.855469 557.105469 503.273438 C 557.105469 501.445312 548.691406 471.46875 546.742188 466.347656 C 546.011719 464.765625 546.5 464.277344 548.691406 464.277344 C 550.277344 464.277344 552.472656 465.007812 553.570312 465.863281 Z M 284.527344 524.839844 C 286.964844 529.347656 288.671875 533.125 288.425781 533.371094 C 288.183594 533.613281 285.988281 532.640625 283.550781 531.175781 C 279.40625 528.738281 279.160156 528.253906 279.160156 522.648438 C 279.160156 519.355469 279.40625 516.675781 279.648438 516.675781 C 280.015625 516.675781 282.210938 520.332031 284.527344 524.839844 Z M 324.023438 558.71875 C 331.214844 560.910156 332.191406 562.007812 330.238281 565.175781 C 328.167969 568.585938 329.875 575.289062 333.898438 579.675781 C 337.796875 583.941406 342.1875 585.527344 346.820312 584.429688 C 350.476562 583.453125 350.71875 580.773438 348.160156 572.242188 L 346.332031 566.394531 L 350.84375 567.246094 C 357.425781 568.464844 368.640625 574.558594 372.296875 578.945312 C 378.148438 585.890625 379.488281 589.667969 378.636719 596.980469 C 377.050781 611.480469 374.734375 615.625 365.226562 620.5 C 357.789062 624.277344 343.285156 623.179688 333.289062 618.0625 C 324.386719 613.550781 320.976562 609.773438 315.125 597.953125 C 310.492188 588.449219 307.320312 573.339844 309.273438 569.804688 C 310.125 568.222656 311.34375 569.320312 315.613281 575.167969 C 318.539062 579.1875 321.21875 582.234375 321.460938 581.992188 C 321.707031 581.746094 319.632812 576.875 316.832031 571.144531 C 309.761719 556.890625 310.855469 554.816406 324.023438 558.71875 Z M 695.710938 567.125 C 697.539062 568.953125 693.273438 574.070312 687.664062 576.996094 C 679.984375 580.773438 678.035156 580.773438 676.328125 576.996094 C 675.109375 574.191406 675.351562 573.460938 679.132812 569.5625 C 682.910156 565.539062 683.765625 565.296875 689.128906 565.785156 C 692.296875 566.027344 695.222656 566.636719 695.710938 567.125 Z M 267.945312 590.644531 C 267.214844 591.617188 265.507812 592.957031 264.167969 593.566406 C 262.09375 594.785156 261.972656 594.542969 262.703125 590.765625 C 263.921875 585.039062 264.535156 584.550781 267.09375 586.867188 C 268.921875 588.449219 269.042969 589.304688 267.945312 590.644531 Z M 372.296875 629.515625 C 373.273438 632.074219 366.566406 649.011719 363.152344 652.667969 C 360.105469 655.960938 355.472656 656.445312 350.476562 654.132812 C 344.746094 651.574219 339.503906 637.558594 342.796875 633.414062 C 343.894531 631.953125 347.792969 630.976562 355.960938 630.003906 C 362.300781 629.273438 367.664062 628.417969 368.03125 628.175781 C 369.25 626.957031 371.566406 627.6875 372.296875 629.515625 Z M 573.441406 669.972656 C 573.316406 670.824219 573.195312 672.53125 573.195312 673.871094 C 573.074219 675.457031 572.097656 676.308594 570.636719 676.308594 C 567.101562 676.308594 566.371094 674.117188 568.6875 670.703125 C 570.636719 667.65625 573.683594 667.292969 573.441406 669.972656 Z M 447.878906 678.625 C 448.367188 679.355469 449.097656 684.472656 449.460938 690.078125 C 449.949219 697.511719 449.707031 700.558594 448.730469 701.289062 C 446.292969 702.753906 421.425781 704.335938 417.523438 703.363281 C 415.453125 702.753906 412.648438 700.558594 411.183594 698.367188 C 408.503906 694.34375 405.332031 682.160156 406.308594 679.597656 C 407.039062 677.648438 446.78125 676.675781 447.878906 678.625 Z M 449.949219 707.992188 C 451.902344 709.089844 452.265625 710.671875 452.265625 719.570312 C 452.265625 725.175781 451.902344 730.046875 451.414062 730.292969 C 450.316406 730.902344 422.523438 729.074219 418.5 728.097656 C 415.207031 727.367188 412.890625 720.542969 413.5 713.476562 L 413.867188 708.601562 L 424.230469 707.871094 C 442.269531 706.773438 447.511719 706.773438 449.949219 707.992188 Z M 449.949219 707.992188 "/>
<path style=" stroke:none;fill-rule:nonzero;fill:rgb(0%,0%,0%);fill-opacity:1;" d="M 653.042969 64.21875 C 651.582031 65.558594 652.191406 68.238281 653.898438 68.238281 C 655.359375 68.238281 657.066406 65.804688 657.066406 63.851562 C 657.066406 63 653.898438 63.242188 653.042969 64.21875 Z M 653.042969 64.21875 "/>
<path style=" stroke:none;fill-rule:nonzero;fill:rgb(0%,0%,0%);fill-opacity:1;" d="M 638.050781 72.382812 C 631.953125 75.1875 628.664062 77.988281 631.464844 77.988281 C 633.050781 77.988281 647.3125 70.921875 647.3125 70.066406 C 647.3125 68.726562 644.023438 69.582031 638.050781 72.382812 Z M 638.050781 72.382812 "/>
<path style=" stroke:none;fill-rule:nonzero;fill:rgb(0%,0%,0%);fill-opacity:1;" d="M 647.921875 75.671875 C 647.4375 76.40625 647.3125 77.257812 647.679688 77.625 C 648.535156 78.476562 650.972656 76.890625 650.972656 75.429688 C 650.972656 73.96875 648.898438 73.96875 647.921875 75.671875 Z M 647.921875 75.671875 "/>
<path style=" stroke:none;fill-rule:nonzero;fill:rgb(0%,0%,0%);fill-opacity:1;" d="M 660.722656 77.5 C 653.410156 80.667969 644.632812 86.761719 645.851562 87.980469 C 646.949219 89.078125 666.820312 78.476562 666.820312 76.648438 C 666.820312 75.1875 665.722656 75.308594 660.722656 77.5 Z M 660.722656 77.5 "/>
<path style=" stroke:none;fill-rule:nonzero;fill:rgb(0%,0%,0%);fill-opacity:1;" d="M 640.609375 79.207031 C 639.269531 80.792969 638.902344 81.644531 639.878906 81.644531 C 642.074219 81.644531 646.09375 79.328125 646.09375 77.988281 C 646.09375 75.917969 642.925781 76.648438 640.609375 79.207031 Z M 640.609375 79.207031 "/>
<path style=" stroke:none;fill-rule:nonzero;fill:rgb(0%,0%,0%);fill-opacity:1;" d="M 659.261719 85.910156 C 652.679688 89.445312 651.582031 90.660156 653.773438 92.367188 C 655.605469 93.953125 666.820312 87.25 666.820312 84.570312 C 666.820312 82.253906 665.964844 82.496094 659.261719 85.910156 Z M 659.261719 85.910156 "/>
<path style=" stroke:none;fill-rule:nonzero;fill:rgb(0%,0%,0%);fill-opacity:1;" d="M 690.347656 83.714844 C 688.273438 84.445312 688.273438 87.738281 690.347656 87.738281 C 691.320312 87.738281 693.027344 86.640625 694.246094 85.300781 C 696.320312 82.984375 696.320312 82.863281 694.125 82.984375 C 692.90625 82.984375 691.078125 83.351562 690.347656 83.714844 Z M 690.347656 83.714844 "/>
<path style=" stroke:none;fill-rule:nonzero;fill:rgb(0%,0%,0%);fill-opacity:1;" d="M 619.03125 88.226562 C 616.960938 89.808594 615.863281 93.34375 617.8125 92.367188 C 618.300781 92.003906 620.496094 91.148438 622.691406 90.296875 C 624.761719 89.445312 626.589844 88.226562 626.589844 87.617188 C 626.589844 85.910156 621.347656 86.398438 619.03125 88.226562 Z M 619.03125 88.226562 "/>
<path style=" stroke:none;fill-rule:nonzero;fill:rgb(0%,0%,0%);fill-opacity:1;" d="M 627.6875 93.707031 C 619.640625 99.070312 618.058594 100.65625 618.058594 102.847656 C 618.058594 106.136719 618.058594 106.136719 635.734375 91.148438 C 638.78125 88.589844 632.5625 90.539062 627.6875 93.707031 Z M 627.6875 93.707031 "/>
<path style=" stroke:none;fill-rule:nonzero;fill:rgb(0%,0%,0%);fill-opacity:1;" d="M 666.820312 92.855469 C 661.332031 95.65625 659.015625 98.703125 662.308594 98.703125 C 663.285156 98.703125 667.308594 96.753906 671.207031 94.441406 C 676.9375 91.027344 677.667969 90.175781 675.230469 90.175781 C 673.523438 90.175781 669.746094 91.394531 666.820312 92.855469 Z M 666.820312 92.855469 "/>
<path style=" stroke:none;fill-rule:nonzero;fill:rgb(0%,0%,0%);fill-opacity:1;" d="M 634.027344 100.53125 C 629.882812 103.578125 626.589844 106.867188 626.589844 107.84375 C 626.589844 108.820312 626.957031 109.671875 627.320312 109.671875 C 628.664062 109.671875 644.875 97 644.875 96.023438 C 644.875 93.832031 640.976562 95.414062 634.027344 100.53125 Z M 634.027344 100.53125 "/>
<path style=" stroke:none;fill-rule:nonzero;fill:rgb(0%,0%,0%);fill-opacity:1;" d="M 673.644531 98.828125 C 670.109375 100.777344 669.378906 101.628906 670.597656 102.359375 C 672.183594 103.457031 678.035156 100.777344 680.472656 97.730469 C 682.421875 95.414062 679.132812 96.023438 673.644531 98.828125 Z M 673.644531 98.828125 "/>
<path style=" stroke:none;fill-rule:nonzero;fill:rgb(0%,0%,0%);fill-opacity:1;" d="M 545.28125 99.558594 C 542.597656 101.386719 541.378906 104.796875 543.453125 104.796875 C 544.0625 104.796875 545.644531 103.578125 547.109375 101.996094 C 551.375 97.363281 550.277344 96.023438 545.28125 99.558594 Z M 545.28125 99.558594 "/>
<path style=" stroke:none;fill-rule:nonzero;fill:rgb(0%,0%,0%);fill-opacity:1;" d="M 553.449219 101.996094 C 547.597656 107.113281 545.15625 110.890625 547.597656 110.890625 C 549.914062 110.890625 562.101562 99.921875 561.25 98.582031 C 560.152344 96.632812 558.445312 97.363281 553.449219 101.996094 Z M 553.449219 101.996094 "/>
<path style=" stroke:none;fill-rule:nonzero;fill:rgb(0%,0%,0%);fill-opacity:1;" d="M 647.558594 104.1875 C 639.878906 107.601562 633.539062 113.328125 637.5625 113.328125 C 639.148438 113.328125 653.289062 104.308594 653.410156 103.214844 C 653.410156 101.996094 652.191406 102.238281 647.558594 104.1875 Z M 647.558594 104.1875 "/>
<path style=" stroke:none;fill-rule:nonzero;fill:rgb(0%,0%,0%);fill-opacity:1;" d="M 582.21875 112.351562 C 576 118.8125 573.683594 123.074219 576.488281 123.074219 C 578.4375 123.074219 590.261719 108.574219 589.652344 106.992188 C 589.289062 106.015625 586.484375 108.085938 582.21875 112.351562 Z M 582.21875 112.351562 "/>
<path style=" stroke:none;fill-rule:nonzero;fill:rgb(0%,0%,0%);fill-opacity:1;" d="M 653.042969 110.769531 C 646.339844 114.667969 644.144531 116.617188 645.121094 117.714844 C 645.851562 118.445312 660.722656 108.941406 660.722656 107.84375 C 660.722656 106.625 658.652344 107.355469 653.042969 110.769531 Z M 653.042969 110.769531 "/>
<path style=" stroke:none;fill-rule:nonzero;fill:rgb(0%,0%,0%);fill-opacity:1;" d="M 591.359375 116.128906 C 583.191406 122.46875 581.484375 124.902344 583.800781 126.976562 C 585.144531 128.316406 585.628906 128.195312 586.117188 126.730469 C 586.484375 125.757812 589.773438 121.734375 593.433594 117.957031 C 601.355469 109.671875 600.503906 108.941406 591.359375 116.128906 Z M 591.359375 116.128906 "/>
<path style=" stroke:none;fill-rule:nonzero;fill:rgb(0%,0%,0%);fill-opacity:1;" d="M 657.921875 118.933594 C 655.359375 120.640625 653.652344 122.46875 654.019531 123.199219 C 654.628906 124.050781 664.382812 117.46875 664.382812 116.128906 C 664.382812 115.035156 662.066406 116.007812 657.921875 118.933594 Z M 657.921875 118.933594 "/>
<path style=" stroke:none;fill-rule:nonzero;fill:rgb(0%,0%,0%);fill-opacity:1;" d="M 644.511719 144.886719 C 636.34375 153.296875 634.757812 155.976562 638.050781 155.976562 C 639.511719 155.976562 653.410156 140.378906 654.386719 137.699219 C 655.480469 134.53125 651.824219 137.210938 644.511719 144.886719 Z M 644.511719 144.886719 "/>
<path style=" stroke:none;fill-rule:nonzero;fill:rgb(0%,0%,0%);fill-opacity:1;" d="M 858.210938 148.058594 C 858.210938 155.003906 859.792969 157.074219 861.136719 151.835938 C 861.988281 148.300781 860.769531 141.355469 859.308594 141.355469 C 858.695312 141.355469 858.210938 144.402344 858.210938 148.058594 Z M 858.210938 148.058594 "/>
<path style=" stroke:none;fill-rule:nonzero;fill:rgb(0%,0%,0%);fill-opacity:1;" d="M 653.652344 151.46875 C 646.703125 158.535156 644.511719 162.070312 647.191406 162.070312 C 647.800781 162.070312 651.945312 157.925781 656.457031 152.929688 C 666.332031 141.84375 664.257812 140.746094 653.652344 151.46875 Z M 653.652344 151.46875 "/>
<path style=" stroke:none;fill-rule:nonzero;fill:rgb(0%,0%,0%);fill-opacity:1;" d="M 865.523438 162.070312 C 865.523438 164.75 866.132812 166.945312 866.742188 166.945312 C 867.472656 166.945312 867.960938 164.75 867.960938 162.070312 C 867.960938 159.390625 867.472656 157.195312 866.742188 157.195312 C 866.132812 157.195312 865.523438 159.390625 865.523438 162.070312 Z M 865.523438 162.070312 "/>
<path style=" stroke:none;fill-rule:nonzero;fill:rgb(0%,0%,0%);fill-opacity:1;" d="M 657.433594 161.09375 C 655.480469 163.65625 654.628906 166.824219 655.847656 167.554688 C 656.945312 168.164062 661.941406 162.558594 661.941406 160.730469 C 661.941406 159.144531 658.773438 159.390625 657.433594 161.09375 Z M 657.433594 161.09375 "/>
<path style=" stroke:none;fill-rule:nonzero;fill:rgb(0%,0%,0%);fill-opacity:1;" d="M 856.257812 172.671875 C 854.917969 182.421875 855.160156 185.101562 857.234375 183.03125 C 858.820312 181.445312 860.160156 163.289062 858.574219 163.289062 C 857.964844 163.289062 856.867188 167.554688 856.257812 172.671875 Z M 856.257812 172.671875 "/>
<path style=" stroke:none;fill-rule:nonzero;fill:rgb(0%,0%,0%);fill-opacity:1;" d="M 863.9375 175.109375 C 863.453125 175.476562 863.085938 177.425781 863.085938 179.128906 C 863.085938 180.957031 862.230469 184.734375 861.378906 187.417969 C 859.308594 193.144531 861.136719 195.945312 863.207031 190.464844 C 866.132812 182.785156 867.230469 176.695312 866.011719 175.476562 C 865.28125 174.742188 864.425781 174.621094 863.9375 175.109375 Z M 863.9375 175.109375 "/>
<path style=" stroke:none;fill-rule:nonzero;fill:rgb(0%,0%,0%);fill-opacity:1;" d="M 877.226562 185.710938 C 876.25 189.488281 877.226562 193.753906 879.054688 193.753906 C 880.394531 193.753906 880.394531 188.027344 879.054688 184.613281 C 878.203125 182.542969 878.078125 182.664062 877.226562 185.710938 Z M 877.226562 185.710938 "/>
<path style=" stroke:none;fill-rule:nonzero;fill:rgb(0%,0%,0%);fill-opacity:1;" d="M 869.914062 190.949219 C 868.816406 198.140625 868.9375 204.234375 870.398438 202.769531 C 872.105469 201.066406 873.449219 186.441406 871.984375 186.441406 C 871.253906 186.441406 870.398438 188.511719 869.914062 190.949219 Z M 869.914062 190.949219 "/>
<path style=" stroke:none;fill-rule:nonzero;fill:rgb(0%,0%,0%);fill-opacity:1;" d="M 849.796875 202.285156 C 847.480469 207.644531 845.164062 212.398438 844.679688 212.761719 C 843.214844 213.617188 843.335938 216.90625 844.800781 216.90625 C 846.386719 216.90625 855.769531 198.140625 855.769531 194.972656 C 855.769531 190.21875 853.699219 192.65625 849.796875 202.285156 Z M 849.796875 202.285156 "/>
<path style=" stroke:none;fill-rule:nonzero;fill:rgb(0%,0%,0%);fill-opacity:1;" d="M 874.667969 203.625 C 872.714844 212.277344 872.839844 214.105469 875.03125 212.761719 C 876.375 211.910156 878.933594 202.40625 878.933594 198.140625 C 878.933594 192.046875 876.617188 195.09375 874.667969 203.625 Z M 874.667969 203.625 "/>
<path style=" stroke:none;fill-rule:nonzero;fill:rgb(0%,0%,0%);fill-opacity:1;" d="M 882.46875 198.261719 C 882.347656 199.847656 882.226562 201.675781 882.101562 202.527344 C 881.980469 203.257812 882.710938 204.113281 883.566406 204.355469 C 885.273438 204.964844 885.515625 200.089844 883.808594 197.410156 C 882.835938 195.945312 882.589844 196.070312 882.46875 198.261719 Z M 882.46875 198.261719 "/>
<path style=" stroke:none;fill-rule:nonzero;fill:rgb(0%,0%,0%);fill-opacity:1;" d="M 855.285156 213.980469 C 849.675781 225.679688 848.945312 227.875 850.652344 227.875 C 852.722656 227.875 863.085938 208.742188 863.085938 204.71875 C 863.085938 199.847656 860.769531 202.527344 855.285156 213.980469 Z M 855.285156 213.980469 "/>
<path style=" stroke:none;fill-rule:nonzero;fill:rgb(0%,0%,0%);fill-opacity:1;" d="M 886.980469 207.035156 C 886.492188 207.890625 886.371094 209.960938 886.855469 211.789062 C 887.589844 214.589844 887.832031 214.714844 888.808594 213.007812 C 890.148438 210.570312 888.320312 204.71875 886.980469 207.035156 Z M 886.980469 207.035156 "/>
<path style=" stroke:none;fill-rule:nonzero;fill:rgb(0%,0%,0%);fill-opacity:1;" d="M 878.445312 215.566406 C 874.667969 232.136719 876.738281 237.5 881.25 222.632812 C 884.296875 212.398438 884.539062 207.15625 882.101562 207.15625 C 880.882812 207.15625 879.664062 210.082031 878.445312 215.566406 Z M 878.445312 215.566406 "/>
<path style=" stroke:none;fill-rule:nonzero;fill:rgb(0%,0%,0%);fill-opacity:1;" d="M 819.199219 212.03125 C 818.46875 213.496094 818.101562 214.957031 818.347656 215.320312 C 818.710938 215.566406 819.6875 214.714844 820.417969 213.25 C 821.152344 211.789062 821.515625 210.324219 821.273438 209.960938 C 820.90625 209.71875 819.929688 210.570312 819.199219 212.03125 Z M 819.199219 212.03125 "/>
<path style=" stroke:none;fill-rule:nonzero;fill:rgb(0%,0%,0%);fill-opacity:1;" d="M 865.890625 214.714844 C 865.28125 215.566406 863.9375 218.246094 863.085938 220.5625 C 862.230469 222.878906 859.917969 227.996094 857.964844 231.773438 C 854.429688 238.960938 855.285156 241.644531 859.183594 235.308594 C 866.132812 223.730469 869.667969 215.6875 868.449219 214.46875 C 867.472656 213.496094 866.742188 213.617188 865.890625 214.714844 Z M 865.890625 214.714844 "/>
<path style=" stroke:none;fill-rule:nonzero;fill:rgb(0%,0%,0%);fill-opacity:1;" d="M 881.859375 227.265625 C 878.445312 238.109375 878.566406 244.203125 882.101562 239.449219 C 884.175781 236.769531 888.6875 222.753906 888.6875 219.222656 C 888.6875 218.003906 887.832031 216.90625 886.855469 216.90625 C 885.761719 216.90625 884.054688 220.441406 881.859375 227.265625 Z M 881.859375 227.265625 "/>
<path style=" stroke:none;fill-rule:nonzero;fill:rgb(0%,0%,0%);fill-opacity:1;" d="M 833.339844 224.339844 C 830.050781 229.09375 829.804688 231.40625 832.488281 229.703125 C 834.4375 228.605469 838.949219 219.34375 837.730469 219.34375 C 837.121094 219.34375 835.046875 221.535156 833.339844 224.339844 Z M 833.339844 224.339844 "/>
<path style=" stroke:none;fill-rule:nonzero;fill:rgb(0%,0%,0%);fill-opacity:1;" d="M 843.945312 221.414062 C 843.09375 221.78125 842.363281 222.632812 842.363281 223.488281 C 842.363281 226.777344 830.171875 249.808594 828.464844 249.808594 C 827.488281 249.808594 826.269531 250.90625 825.90625 252.367188 C 825.417969 253.707031 822.371094 258.339844 819.078125 262.726562 C 815.785156 267.113281 813.105469 271.132812 813.105469 271.863281 C 813.105469 275.398438 818.101562 270.15625 826.515625 257.730469 C 828.832031 254.316406 831.390625 251.027344 832.121094 250.417969 C 832.976562 249.6875 836.753906 243.226562 840.535156 235.917969 C 846.996094 223.730469 847.847656 219.953125 843.945312 221.414062 Z M 843.945312 221.414062 "/>
<path style=" stroke:none;fill-rule:nonzero;fill:rgb(0%,0%,0%);fill-opacity:1;" d="M 888.320312 230.3125 C 884.664062 240.304688 882.46875 255.902344 884.785156 255.902344 C 885.515625 255.902344 886.371094 255.414062 886.734375 254.925781 C 888.320312 252.246094 892.464844 230.433594 892.097656 226.046875 L 891.734375 221.171875 Z M 888.320312 230.3125 "/>
<path style=" stroke:none;fill-rule:nonzero;fill:rgb(0%,0%,0%);fill-opacity:1;" d="M 805.425781 235.308594 C 801.644531 240.914062 798.964844 245.910156 799.328125 246.519531 C 800.304688 247.980469 802.378906 245.785156 808.839844 236.402344 C 813.105469 230.1875 814.445312 227.507812 813.46875 226.53125 C 812.496094 225.558594 810.179688 227.996094 805.425781 235.308594 Z M 805.425781 235.308594 "/>
<path style=" stroke:none;fill-rule:nonzero;fill:rgb(0%,0%,0%);fill-opacity:1;" d="M 867.109375 230.3125 C 866.742188 231.773438 864.546875 236.769531 862.355469 241.398438 C 857.476562 251.390625 856.867188 255.046875 860.527344 251.757812 C 863.453125 249.078125 871.984375 230.675781 871.007812 229.09375 C 869.789062 227.019531 867.839844 227.75 867.109375 230.3125 Z M 867.109375 230.3125 "/>
<path style=" stroke:none;fill-rule:nonzero;fill:rgb(0%,0%,0%);fill-opacity:1;" d="M 827.855469 234.699219 C 825.171875 238.109375 824.5625 240.058594 826.269531 240.058594 C 827.488281 240.058594 831.757812 232.746094 831.023438 232.015625 C 830.660156 231.652344 829.316406 232.871094 827.855469 234.699219 Z M 827.855469 234.699219 "/>
<path style=" stroke:none;fill-rule:nonzero;fill:rgb(0%,0%,0%);fill-opacity:1;" d="M 891.246094 246.273438 C 889.050781 253.707031 886.980469 262.117188 886.613281 264.917969 C 886.246094 267.597656 883.808594 274.179688 881.25 279.296875 C 876.375 288.800781 873.570312 300.988281 876.25 300.988281 C 882.347656 300.988281 900.023438 241.644531 896.121094 234.332031 C 895.632812 233.480469 893.441406 238.839844 891.246094 246.273438 Z M 891.246094 246.273438 "/>
<path style=" stroke:none;fill-rule:nonzero;fill:rgb(0%,0%,0%);fill-opacity:1;" d="M 811.03125 243.105469 C 805.914062 252 804.9375 254.683594 806.765625 254.683594 C 809.203125 254.558594 819.808594 237.132812 818.589844 235.183594 C 817.25 232.871094 816.152344 233.964844 811.03125 243.105469 Z M 811.03125 243.105469 "/>
<path style=" stroke:none;fill-rule:nonzero;fill:rgb(0%,0%,0%);fill-opacity:1;" d="M 846.75 236.28125 C 845.53125 238.109375 836.265625 261.261719 836.265625 262.238281 C 836.265625 262.726562 836.753906 263.210938 837.363281 263.210938 C 838.582031 263.210938 850.894531 239.449219 850.894531 237.011719 C 850.894531 235.0625 847.847656 234.574219 846.75 236.28125 Z M 846.75 236.28125 "/>
<path style=" stroke:none;fill-rule:nonzero;fill:rgb(0%,0%,0%);fill-opacity:1;" d="M 871.375 240.914062 C 868.328125 244.324219 861.867188 257.972656 861.867188 260.898438 C 861.867188 262.359375 862.476562 263.210938 863.328125 262.96875 C 865.523438 262.238281 875.15625 246.152344 875.519531 242.617188 C 876.007812 238.960938 873.8125 238.109375 871.375 240.914062 Z M 871.375 240.914062 "/>
<path style=" stroke:none;fill-rule:nonzero;fill:rgb(0%,0%,0%);fill-opacity:1;" d="M 815.910156 250.660156 C 809.691406 260.164062 808.59375 264.1875 813.46875 259.921875 C 816.152344 257.484375 825.296875 243.957031 825.296875 242.253906 C 825.296875 238.960938 821.273438 242.496094 815.910156 250.660156 Z M 815.910156 250.660156 "/>
<path style=" stroke:none;fill-rule:nonzero;fill:rgb(0%,0%,0%);fill-opacity:1;" d="M 899.414062 244.933594 C 898.925781 245.910156 896.609375 254.4375 894.050781 263.699219 C 889.78125 280.027344 889.660156 280.757812 891.855469 282.34375 C 895.148438 284.78125 896.121094 282.832031 897.21875 272.109375 C 897.828125 266.867188 898.925781 259.800781 899.65625 256.265625 C 901.121094 249.808594 900.875 241.398438 899.414062 244.933594 Z M 899.414062 244.933594 "/>
<path style=" stroke:none;fill-rule:nonzero;fill:rgb(0%,0%,0%);fill-opacity:1;" d="M 849.1875 251.515625 C 843.582031 260.164062 838.460938 271.621094 839.4375 273.203125 C 840.777344 275.398438 844.070312 271.011719 849.308594 259.800781 C 856.015625 245.910156 855.894531 241.15625 849.1875 251.515625 Z M 849.1875 251.515625 "/>
<path style=" stroke:none;fill-rule:nonzero;fill:rgb(0%,0%,0%);fill-opacity:1;" d="M 874.179688 254.195312 C 872.714844 256.632812 870.765625 260.53125 869.789062 262.847656 C 866.742188 270.15625 867.839844 275.761719 871.375 271.375 C 873.933594 268.332031 880.152344 254.804688 880.152344 252.367188 C 880.152344 248.34375 876.984375 249.320312 874.179688 254.195312 Z M 874.179688 254.195312 "/>
<path style=" stroke:none;fill-rule:nonzero;fill:rgb(0%,0%,0%);fill-opacity:1;" d="M 757.027344 258.945312 C 750.8125 265.285156 749.714844 266.867188 751.664062 266.867188 C 754.226562 266.867188 766.78125 254.804688 766.78125 252.367188 C 766.78125 249.808594 764.707031 251.148438 757.027344 258.945312 Z M 757.027344 258.945312 "/>
<path style=" stroke:none;fill-rule:nonzero;fill:rgb(0%,0%,0%);fill-opacity:1;" d="M 748.496094 255.292969 C 746.300781 257.851562 748.128906 259.191406 750.445312 256.875 C 751.664062 255.777344 751.910156 254.683594 751.175781 254.195312 C 750.566406 253.828125 749.347656 254.316406 748.496094 255.292969 Z M 748.496094 255.292969 "/>
<path style=" stroke:none;fill-rule:nonzero;fill:rgb(0%,0%,0%);fill-opacity:1;" d="M 793.113281 263.210938 C 787.75 271.375 786.285156 275.398438 788.601562 275.398438 C 789.699219 275.398438 800.304688 260.042969 801.769531 256.511719 C 802.132812 255.414062 801.644531 254.683594 800.671875 254.683594 C 799.695312 254.683594 796.28125 258.460938 793.113281 263.210938 Z M 793.113281 263.210938 "/>
<path style=" stroke:none;fill-rule:nonzero;fill:rgb(0%,0%,0%);fill-opacity:1;" d="M 854.308594 256.386719 C 851.871094 258.824219 841.875 281.367188 842.847656 282.34375 C 843.214844 282.832031 844.070312 282.585938 844.679688 281.976562 C 846.871094 279.785156 858.210938 259.3125 858.210938 257.730469 C 858.210938 255.167969 856.136719 254.4375 854.308594 256.386719 Z M 854.308594 256.386719 "/>
<path style=" stroke:none;fill-rule:nonzero;fill:rgb(0%,0%,0%);fill-opacity:1;" d="M 762.148438 266.015625 C 754.46875 273.9375 753.492188 275.398438 756.054688 275.398438 C 758.125 275.398438 771.65625 261.871094 771.65625 259.921875 C 771.65625 257.121094 769.949219 258.214844 762.148438 266.015625 Z M 762.148438 266.015625 "/>
<path style=" stroke:none;fill-rule:nonzero;fill:rgb(0%,0%,0%);fill-opacity:1;" d="M 830.414062 260.773438 C 827.246094 264.550781 816.640625 281.855469 817.25 282.34375 C 818.347656 283.5625 820.539062 281.246094 826.636719 272.230469 C 830.050781 267.234375 832.609375 262.238281 832.367188 261.019531 C 832 259.3125 831.757812 259.3125 830.414062 260.773438 Z M 830.414062 260.773438 "/>
<path style=" stroke:none;fill-rule:nonzero;fill:rgb(0%,0%,0%);fill-opacity:1;" d="M 881.617188 263.457031 C 879.542969 266.136719 871.617188 282.222656 871.617188 283.804688 C 871.617188 287.097656 874.910156 284.050781 879.175781 276.496094 C 883.929688 268.207031 886.125 261.992188 884.054688 261.992188 C 883.445312 261.992188 882.347656 262.726562 881.617188 263.457031 Z M 881.617188 263.457031 "/>
<path style=" stroke:none;fill-rule:nonzero;fill:rgb(0%,0%,0%);fill-opacity:1;" d="M 799.9375 267.722656 C 793.601562 276.007812 789.699219 282.585938 790.550781 283.929688 C 791.769531 286 794.453125 283.804688 800.304688 275.398438 C 807.984375 264.550781 807.742188 257.972656 799.9375 267.722656 Z M 799.9375 267.722656 "/>
<path style=" stroke:none;fill-rule:nonzero;fill:rgb(0%,0%,0%);fill-opacity:1;" d="M 853.941406 271.375 C 845.164062 286.242188 842.726562 295.871094 850.164062 286 C 856.992188 277.105469 862.71875 263.210938 859.671875 263.210938 C 859.183594 263.210938 856.503906 266.867188 853.941406 271.375 Z M 853.941406 271.375 "/>
<path style=" stroke:none;fill-rule:nonzero;fill:rgb(0%,0%,0%);fill-opacity:1;" d="M 781.410156 265.648438 C 781.410156 266.257812 782.019531 266.867188 782.628906 266.867188 C 783.359375 266.867188 783.847656 266.257812 783.847656 265.648438 C 783.847656 264.917969 783.359375 264.429688 782.628906 264.429688 C 782.019531 264.429688 781.410156 264.917969 781.410156 265.648438 Z M 781.410156 265.648438 "/>
<path style=" stroke:none;fill-rule:nonzero;fill:rgb(0%,0%,0%);fill-opacity:1;" d="M 765.804688 273.328125 C 759.710938 279.542969 758.371094 281.492188 760.441406 281.492188 C 761.90625 281.492188 775.3125 269.304688 775.3125 267.964844 C 775.3125 265.285156 771.777344 267.355469 765.804688 273.328125 Z M 765.804688 273.328125 "/>
<path style=" stroke:none;fill-rule:nonzero;fill:rgb(0%,0%,0%);fill-opacity:1;" d="M 830.78125 274.421875 C 829.683594 277.347656 827.125 281.855469 825.171875 284.414062 C 822.855469 287.707031 822.003906 289.65625 822.855469 290.507812 C 824.320312 291.96875 826.027344 289.898438 831.390625 280.882812 C 834.925781 274.910156 836.144531 269.304688 833.949219 269.304688 C 833.339844 269.304688 832 271.621094 830.78125 274.421875 Z M 830.78125 274.421875 "/>
<path style=" stroke:none;fill-rule:nonzero;fill:rgb(0%,0%,0%);fill-opacity:1;" d="M 772.511719 277.46875 C 769.21875 281.613281 765.683594 285.269531 764.585938 285.757812 C 763.125 286.242188 763 286.730469 764.222656 287.949219 C 766.414062 290.144531 779.335938 276.859375 778.726562 272.839844 C 778.363281 270.28125 777.753906 270.765625 772.511719 277.46875 Z M 772.511719 277.46875 "/>
<path style=" stroke:none;fill-rule:nonzero;fill:rgb(0%,0%,0%);fill-opacity:1;" d="M 800.671875 282.585938 C 793.722656 292.824219 792.503906 297.574219 797.988281 292.335938 C 802.863281 287.828125 808.472656 278.199219 807.984375 275.15625 C 807.742188 272.839844 806.398438 274.179688 800.671875 282.585938 Z M 800.671875 282.585938 "/>
<path style=" stroke:none;fill-rule:nonzero;fill:rgb(0%,0%,0%);fill-opacity:1;" d="M 857.355469 281.734375 C 851.625 292.214844 849.066406 298.429688 850.042969 299.28125 C 851.503906 300.867188 864.304688 278.6875 864.304688 274.421875 C 864.304688 270.890625 861.746094 273.570312 857.355469 281.734375 Z M 857.355469 281.734375 "/>
<path style=" stroke:none;fill-rule:nonzero;fill:rgb(0%,0%,0%);fill-opacity:1;" d="M 836.023438 278.808594 C 830.171875 285.632812 821.515625 306.835938 827 300.988281 C 830.050781 297.574219 839.921875 277.957031 838.828125 277.347656 C 838.339844 276.980469 837 277.589844 836.023438 278.808594 Z M 836.023438 278.808594 "/>
<path style=" stroke:none;fill-rule:nonzero;fill:rgb(0%,0%,0%);fill-opacity:1;" d="M 773.484375 287.21875 C 765.074219 295.992188 764.34375 297.332031 767.632812 297.332031 C 770.195312 297.332031 783.847656 283.5625 783.847656 280.882812 C 783.847656 277.46875 781.289062 279.054688 773.484375 287.21875 Z M 773.484375 287.21875 "/>
<path style=" stroke:none;fill-rule:nonzero;fill:rgb(0%,0%,0%);fill-opacity:1;" d="M 807.742188 285.757812 C 804.449219 290.628906 798.476562 300.988281 798.476562 301.597656 C 798.476562 301.964844 799.207031 302.207031 800.0625 302.207031 C 801.402344 302.207031 808.230469 292.457031 811.765625 285.390625 C 813.835938 281.492188 810.300781 281.734375 807.742188 285.757812 Z M 807.742188 285.757812 "/>
<path style=" stroke:none;fill-rule:nonzero;fill:rgb(0%,0%,0%);fill-opacity:1;" d="M 860.890625 290.265625 C 856.382812 297.820312 853.089844 306.835938 854.066406 308.542969 C 854.917969 309.761719 864.425781 293.675781 866.621094 287.21875 C 868.691406 281.492188 865.15625 283.320312 860.890625 290.265625 Z M 860.890625 290.265625 "/>
<path style=" stroke:none;fill-rule:nonzero;fill:rgb(0%,0%,0%);fill-opacity:1;" d="M 776.777344 294.53125 C 771.65625 300.257812 769.707031 303.179688 770.558594 304.035156 C 771.414062 304.886719 774.339844 302.695312 779.703125 296.84375 C 783.96875 292.335938 787.503906 288.070312 787.503906 287.460938 C 787.503906 284.539062 783.605469 287.097656 776.777344 294.53125 Z M 776.777344 294.53125 "/>
<path style=" stroke:none;fill-rule:nonzero;fill:rgb(0%,0%,0%);fill-opacity:1;" d="M 833.949219 298.792969 C 826.269531 311.46875 824.808594 316.464844 830.539062 310.371094 C 834.558594 305.863281 843.582031 290.753906 843.582031 288.316406 C 843.582031 284.171875 841.019531 286.851562 833.949219 298.792969 Z M 833.949219 298.792969 "/>
<path style=" stroke:none;fill-rule:nonzero;fill:rgb(0%,0%,0%);fill-opacity:1;" d="M 882.710938 298.671875 C 877.957031 308.175781 876.128906 316.828125 879.054688 316.828125 C 880.761719 316.828125 888.808594 299.039062 889.660156 293.433594 C 890.636719 286 888.078125 287.949219 882.710938 298.671875 Z M 882.710938 298.671875 "/>
<path style=" stroke:none;fill-rule:nonzero;fill:rgb(0%,0%,0%);fill-opacity:1;" d="M 807.742188 299.402344 C 801.769531 307.691406 799.328125 312.6875 801.890625 311.832031 C 803.960938 311.101562 816.761719 294.894531 816.761719 292.945312 C 816.761719 289.167969 813.347656 291.605469 807.742188 299.402344 Z M 807.742188 299.402344 "/>
<path style=" stroke:none;fill-rule:nonzero;fill:rgb(0%,0%,0%);fill-opacity:1;" d="M 780.3125 302.328125 C 774.460938 308.785156 772.875 311.222656 773.972656 312.320312 C 775.070312 313.417969 777.265625 311.710938 783.238281 305.375 C 790.917969 297.332031 792.867188 293.675781 789.699219 293.675781 C 788.847656 293.675781 784.578125 297.574219 780.3125 302.328125 Z M 780.3125 302.328125 "/>
<path style=" stroke:none;fill-rule:nonzero;fill:rgb(0%,0%,0%);fill-opacity:1;" d="M 865.035156 299.527344 C 857.601562 311.347656 853.820312 321.09375 857.355469 319.875 C 859.308594 319.023438 870.398438 299.648438 870.398438 296.96875 C 870.398438 293.554688 868.207031 294.652344 865.035156 299.527344 Z M 865.035156 299.527344 "/>
<path style=" stroke:none;fill-rule:nonzero;fill:rgb(0%,0%,0%);fill-opacity:1;" d="M 842.605469 297.699219 C 841.996094 298.429688 840.535156 301.109375 839.4375 303.425781 C 838.460938 305.742188 835.902344 310.738281 833.949219 314.390625 C 830.539062 320.484375 830.414062 324.386719 833.707031 322.433594 C 835.535156 321.214844 846.019531 301.71875 846.019531 299.402344 C 846.019531 296.722656 844.191406 295.75 842.605469 297.699219 Z M 842.605469 297.699219 "/>
<path style=" stroke:none;fill-rule:nonzero;fill:rgb(0%,0%,0%);fill-opacity:1;" d="M 813.46875 303.667969 C 805.914062 313.78125 804.207031 316.828125 805.179688 317.804688 C 806.15625 318.78125 812.007812 312.320312 817.492188 304.523438 C 819.808594 301.109375 820.417969 299.28125 819.566406 298.429688 C 818.589844 297.453125 816.761719 299.039062 813.46875 303.667969 Z M 813.46875 303.667969 "/>
<path style=" stroke:none;fill-rule:nonzero;fill:rgb(0%,0%,0%);fill-opacity:1;" d="M 784.945312 308.175781 C 777.507812 315.488281 776.167969 318.046875 779.824219 318.046875 C 782.140625 318.046875 794.820312 304.886719 794.820312 302.449219 C 794.820312 299.527344 792.015625 301.109375 784.945312 308.175781 Z M 784.945312 308.175781 "/>
<path style=" stroke:none;fill-rule:nonzero;fill:rgb(0%,0%,0%);fill-opacity:1;" d="M 867.597656 308.542969 C 862.230469 315.734375 856.503906 327.796875 857.964844 329.257812 C 859.0625 330.355469 862.71875 326.210938 870.765625 314.390625 C 872.960938 311.222656 873.570312 304.644531 871.742188 304.644531 C 871.007812 304.644531 869.179688 306.472656 867.597656 308.542969 Z M 867.597656 308.542969 "/>
<path style=" stroke:none;fill-rule:nonzero;fill:rgb(0%,0%,0%);fill-opacity:1;" d="M 817.617188 310.980469 C 811.277344 318.65625 804.570312 329.015625 804.570312 330.964844 C 804.570312 336.328125 811.15625 328.894531 821.273438 312.199219 C 826.269531 304.035156 823.832031 303.304688 817.617188 310.980469 Z M 817.617188 310.980469 "/>
<path style=" stroke:none;fill-rule:nonzero;fill:rgb(0%,0%,0%);fill-opacity:1;" d="M 839.4375 317.925781 C 833.828125 327.308594 830.78125 337.546875 833.585938 337.546875 C 835.046875 337.546875 846.628906 316.585938 847.847656 311.589844 C 849.554688 305.007812 845.410156 308.175781 839.4375 317.925781 Z M 839.4375 317.925781 "/>
<path style=" stroke:none;fill-rule:nonzero;fill:rgb(0%,0%,0%);fill-opacity:1;" d="M 850.40625 315.367188 C 847.605469 319.753906 836.265625 342.417969 836.265625 343.636719 C 836.265625 348.878906 845.898438 336.9375 849.675781 327.066406 C 852.113281 320.242188 852.722656 311.832031 850.40625 315.367188 Z M 850.40625 315.367188 "/>
<path style=" stroke:none;fill-rule:nonzero;fill:rgb(0%,0%,0%);fill-opacity:1;" d="M 817.25 323.167969 C 809.933594 333.160156 808.105469 336.691406 809.449219 338.765625 C 810.300781 340.105469 810.789062 340.105469 812.375 338.765625 C 815.300781 336.449219 826.515625 319.386719 826.515625 317.316406 C 826.515625 313.539062 822.492188 315.976562 817.25 323.167969 Z M 817.25 323.167969 "/>
<path style=" stroke:none;fill-rule:nonzero;fill:rgb(0%,0%,0%);fill-opacity:1;" d="M 871.984375 317.074219 C 870.15625 319.386719 861.867188 336.082031 861.867188 337.546875 C 861.867188 340.46875 864.546875 338.277344 868.570312 331.941406 C 874.179688 323.289062 875.519531 319.632812 874.300781 317.316406 C 873.449219 315.734375 873.082031 315.734375 871.984375 317.074219 Z M 871.984375 317.074219 "/>
<path style=" stroke:none;fill-rule:nonzero;fill:rgb(0%,0%,0%);fill-opacity:1;" d="M 789.457031 324.75 C 782.628906 332.550781 781.164062 336.9375 786.652344 333.28125 C 789.820312 331.207031 798.476562 320.242188 798.476562 318.171875 C 798.476562 315.367188 796.160156 317.074219 789.457031 324.75 Z M 789.457031 324.75 "/>
<path style=" stroke:none;fill-rule:nonzero;fill:rgb(0%,0%,0%);fill-opacity:1;" d="M 872.472656 328.648438 C 865.402344 339.859375 861.746094 349.730469 866.011719 346.199219 C 869.304688 343.515625 877.714844 329.503906 877.714844 326.820312 C 877.714844 322.800781 875.640625 323.53125 872.472656 328.648438 Z M 872.472656 328.648438 "/>
<path style=" stroke:none;fill-rule:nonzero;fill:rgb(0%,0%,0%);fill-opacity:1;" d="M 792.503906 331.941406 C 786.652344 338.277344 784.335938 343.152344 787.992188 341.6875 C 790.066406 340.835938 800.914062 328.285156 800.914062 326.699219 C 800.914062 324.019531 798.71875 325.480469 792.503906 331.941406 Z M 792.503906 331.941406 "/>
<path style=" stroke:none;fill-rule:nonzero;fill:rgb(0%,0%,0%);fill-opacity:1;" d="M 818.957031 335.59375 C 814.324219 341.566406 810.667969 346.929688 810.667969 347.539062 C 810.667969 348.023438 811.640625 348.511719 812.859375 348.511719 C 817.617188 348.511719 828.34375 333.160156 827.488281 327.429688 C 827.246094 325.238281 825.539062 326.820312 818.957031 335.59375 Z M 818.957031 335.59375 "/>
<path style=" stroke:none;fill-rule:nonzero;fill:rgb(0%,0%,0%);fill-opacity:1;" d="M 846.871094 340.226562 C 839.558594 353.386719 838.460938 357.53125 841.996094 356.800781 C 844.3125 356.433594 855.527344 336.203125 856.015625 331.453125 C 856.746094 325.117188 853.332031 328.40625 846.871094 340.226562 Z M 846.871094 340.226562 "/>
<path style=" stroke:none;fill-rule:nonzero;fill:rgb(0%,0%,0%);fill-opacity:1;" d="M 822.613281 342.785156 C 815.421875 352.167969 813.46875 356.3125 815.421875 357.53125 C 817.003906 358.503906 829.683594 341.6875 830.78125 337.179688 C 832.242188 331.695312 829.683594 333.402344 822.613281 342.785156 Z M 822.613281 342.785156 "/>
<path style=" stroke:none;fill-rule:nonzero;fill:rgb(0%,0%,0%);fill-opacity:1;" d="M 849.308594 352.777344 C 841.386719 368.617188 840.289062 373.492188 846.140625 366.792969 C 850.652344 361.671875 859.429688 344.734375 859.429688 341.199219 C 859.429688 335.59375 855.894531 339.617188 849.308594 352.777344 Z M 849.308594 352.777344 "/>
<path style=" stroke:none;fill-rule:nonzero;fill:rgb(0%,0%,0%);fill-opacity:1;" d="M 825.539062 351.679688 C 817.738281 361.796875 815.910156 367.15625 820.785156 365.207031 C 823.464844 364.230469 833.949219 349.609375 833.585938 347.539062 C 832.851562 343.882812 830.660156 344.980469 825.539062 351.679688 Z M 825.539062 351.679688 "/>
<path style=" stroke:none;fill-rule:nonzero;fill:rgb(0%,0%,0%);fill-opacity:1;" d="M 852.359375 361.671875 C 844.554688 375.199219 843.214844 379.464844 846.871094 378.734375 C 848.089844 378.488281 851.382812 373.613281 854.675781 366.792969 C 862.230469 351.800781 863.453125 348.511719 861.378906 348.511719 C 860.527344 348.511719 856.503906 354.484375 852.359375 361.671875 Z M 852.359375 361.671875 "/>
<path style=" stroke:none;fill-rule:nonzero;fill:rgb(0%,0%,0%);fill-opacity:1;" d="M 830.050781 359.113281 C 821.761719 367.886719 817.980469 375.441406 822.003906 375.320312 C 824.441406 375.199219 835.046875 360.820312 835.046875 357.53125 C 835.046875 355.945312 834.925781 354.605469 834.683594 354.605469 C 834.4375 354.605469 832.367188 356.675781 830.050781 359.113281 Z M 830.050781 359.113281 "/>
<path style=" stroke:none;fill-rule:nonzero;fill:rgb(0%,0%,0%);fill-opacity:1;" d="M 832.488281 367.644531 C 826.390625 374.347656 824.078125 378.125 824.078125 381.535156 C 824.078125 383.484375 824.5625 385.070312 825.171875 385.070312 C 827.125 385.070312 837.484375 369.714844 837.484375 366.914062 C 837.484375 363.5 836.144531 363.621094 832.488281 367.644531 Z M 832.488281 367.644531 "/>
<path style=" stroke:none;fill-rule:nonzero;fill:rgb(0%,0%,0%);fill-opacity:1;" d="M 428.007812 584.308594 C 423.007812 589.667969 421.789062 592.226562 424.230469 592.226562 C 425.8125 592.226562 437.636719 581.382812 437.636719 579.921875 C 437.636719 577.117188 432.519531 579.433594 428.007812 584.308594 Z M 428.007812 584.308594 "/>
<path style=" stroke:none;fill-rule:nonzero;fill:rgb(0%,0%,0%);fill-opacity:1;" d="M 573.804688 607.460938 C 565.273438 612.335938 558.324219 616.84375 558.566406 617.453125 C 559.054688 618.792969 559.542969 618.550781 572.585938 610.992188 C 582.460938 605.144531 591.96875 598.320312 590.019531 598.441406 C 589.652344 598.441406 582.339844 602.464844 573.804688 607.460938 Z M 573.804688 607.460938 "/>
<path style=" stroke:none;fill-rule:nonzero;fill:rgb(0%,0%,0%);fill-opacity:1;" d="M 480.304688 601.367188 C 480.304688 602.34375 482.132812 604.414062 484.328125 605.753906 C 487.375 607.703125 489.570312 608.070312 494.8125 607.582031 C 498.46875 607.214844 502.246094 606.121094 503.34375 605.144531 C 505.050781 603.316406 504.5625 603.195312 498.347656 603.195312 C 494.691406 603.195312 489.203125 602.34375 486.398438 601.367188 C 480.0625 599.171875 480.304688 599.171875 480.304688 601.367188 Z M 480.304688 601.367188 "/>
<path style=" stroke:none;fill-rule:nonzero;fill:rgb(0%,0%,0%);fill-opacity:1;" d="M 550.523438 614.40625 C 551.132812 618.0625 550.765625 618.671875 545.890625 621.59375 C 542.964844 623.421875 538.453125 625.496094 535.769531 626.347656 C 529.675781 628.175781 527.605469 630.003906 531.382812 630.003906 C 532.847656 630.003906 537.84375 628.296875 542.476562 626.347656 C 552.230469 622.082031 552.960938 621.960938 554.542969 624.761719 C 556.984375 629.273438 557.46875 624.640625 555.277344 618.183594 C 552.472656 610.261719 549.546875 607.949219 550.523438 614.40625 Z M 550.523438 614.40625 "/>
<path style=" stroke:none;fill-rule:nonzero;fill:rgb(0%,0%,0%);fill-opacity:1;" d="M 523.09375 623.546875 L 522.972656 630.003906 L 515.414062 630.246094 C 511.148438 630.367188 502.246094 630.367188 495.542969 630.246094 C 483.839844 630.003906 483.472656 630.125 487.375 631.832031 C 490.058594 633.050781 496.519531 633.78125 507.613281 634.148438 C 516.511719 634.390625 524.433594 634.878906 525.164062 635.363281 C 527.480469 636.707031 527.480469 634.511719 525.289062 625.738281 L 523.214844 617.207031 Z M 523.09375 623.546875 "/>
</g>
</svg>
